<svg id="svg" version="1.1" xmlns="http://www.w3.org/2000/svg" xmlns:xlink="http://www.w3.org/1999/xlink" width="400" height="400" viewBox="0, 0, 400,400"><g id="svgg"><path id="path0" d="M33.500 135.876 C 32.501 136.137,32.438 144.176,33.433 144.557 C 35.087 145.192,97.109 144.814,97.357 144.167 C 97.673 143.345,97.673 137.055,97.357 136.233 C 97.124 135.624,35.774 135.281,33.500 135.876 M107.052 136.500 C 106.740 137.665,106.740 142.735,107.052 143.900 L 107.293 144.800 153.047 144.800 C 206.476 144.800,202.286 145.290,193.553 140.066 C 192.757 139.590,191.854 139.200,191.547 139.200 C 191.240 139.200,190.358 138.862,189.588 138.450 C 188.819 138.037,186.083 137.227,183.509 136.650 L 178.829 135.600 143.061 135.600 L 107.293 135.600 107.052 136.500 M220.953 136.076 C 220.451 136.889,220.302 142.541,220.753 143.700 L 221.180 144.800 247.143 144.800 L 273.107 144.800 273.332 143.938 C 273.460 143.450,273.132 142.064,272.579 140.750 C 272.040 139.471,271.600 138.149,271.600 137.812 C 271.600 137.475,271.240 136.840,270.800 136.400 C 269.824 135.424,221.550 135.110,220.953 136.076 M319.874 135.941 C 318.900 136.327,317.176 140.558,317.078 142.800 L 317.000 144.600 343.092 144.703 L 369.183 144.806 369.409 143.903 C 369.534 143.406,369.582 141.380,369.518 139.400 L 369.400 135.800 345.000 135.727 C 331.580 135.686,320.273 135.783,319.874 135.941 M34.000 154.351 C 33.029 154.626,32.997 154.750,32.887 158.665 L 32.773 162.695 34.037 162.947 C 36.161 163.372,95.438 163.242,96.574 162.810 C 97.672 162.392,98.155 156.298,97.209 154.800 C 96.801 154.154,36.213 153.724,34.000 154.351 M108.400 154.357 C 107.428 154.627,107.397 154.748,107.287 158.665 L 107.173 162.695 108.437 162.947 C 110.079 163.276,208.308 163.278,209.950 162.950 C 211.455 162.649,211.602 161.563,210.449 159.284 C 210.036 158.468,209.571 157.212,209.416 156.493 C 208.844 153.847,211.962 153.996,158.120 154.040 C 131.324 154.062,108.950 154.205,108.400 154.357 M220.796 155.209 C 220.282 156.450,220.399 161.827,220.959 162.734 C 221.266 163.230,277.280 163.436,279.100 162.948 C 280.136 162.670,280.260 161.677,279.457 160.080 C 279.159 159.486,278.795 158.377,278.650 157.614 C 278.505 156.852,277.905 155.727,277.318 155.114 L 276.250 154.000 248.774 154.000 L 221.297 154.000 220.796 155.209 M312.696 155.016 C 312.065 155.601,311.600 156.456,311.600 157.032 C 311.600 157.582,311.240 158.738,310.800 159.600 C 308.819 163.482,306.883 163.260,341.400 163.116 L 369.400 163.000 369.518 159.400 C 369.582 157.420,369.534 155.395,369.410 154.900 L 369.185 154.000 341.488 154.000 L 313.792 154.000 312.696 155.016 M51.072 173.061 C 50.453 173.680,50.774 180.705,51.433 180.957 C 52.394 181.326,77.325 181.235,77.916 180.860 C 78.292 180.622,78.400 179.510,78.316 176.767 L 78.200 173.000 64.772 172.895 C 57.386 172.837,51.221 172.912,51.072 173.061 M126.272 173.061 C 125.653 173.680,125.974 180.705,126.633 180.957 C 127.460 181.275,151.524 181.263,152.714 180.944 C 153.596 180.708,153.624 180.566,153.514 176.850 L 153.400 173.000 139.972 172.895 C 132.586 172.837,126.421 172.912,126.272 173.061 M182.672 173.062 C 181.854 173.879,182.398 180.706,183.300 180.948 C 184.650 181.310,210.122 181.237,210.701 180.870 C 211.031 180.660,211.235 179.268,211.301 176.776 L 211.400 173.000 197.172 172.895 C 189.346 172.837,182.821 172.912,182.672 173.062 M239.095 173.097 C 238.633 173.992,239.071 180.473,239.616 180.818 C 240.427 181.331,285.878 181.321,286.195 180.808 C 286.464 180.373,285.764 177.443,285.094 176.200 C 284.857 175.760,284.551 174.860,284.415 174.200 L 284.167 173.000 261.709 172.897 C 249.357 172.840,239.181 172.930,239.095 173.097 M306.097 173.297 C 305.873 173.574,305.375 174.790,304.990 176.000 C 304.605 177.210,304.056 178.767,303.771 179.460 C 303.033 181.249,302.214 181.189,327.400 181.189 C 354.423 181.189,351.657 181.687,351.514 176.850 L 351.400 173.000 328.952 172.897 C 311.296 172.815,306.417 172.901,306.097 173.297 M51.500 190.676 C 50.394 190.965,50.460 198.190,51.574 198.786 C 52.736 199.408,77.293 199.347,77.920 198.720 C 78.700 197.940,78.568 190.950,77.767 190.643 C 77.045 190.366,52.568 190.397,51.500 190.676 M126.551 190.648 C 125.997 190.876,126.304 197.951,126.900 198.700 C 127.213 199.093,134.851 199.200,162.669 199.200 C 201.597 199.200,199.073 199.363,201.287 196.705 C 201.884 195.987,203.094 194.590,203.976 193.600 C 207.100 190.092,210.715 190.396,166.300 190.432 C 144.685 190.449,126.798 190.546,126.551 190.648 M239.528 190.900 C 238.467 191.749,238.998 198.652,240.147 198.960 C 241.286 199.266,263.953 199.255,265.097 198.949 C 265.715 198.783,266.122 198.231,266.408 197.171 C 267.093 194.626,268.096 194.697,268.667 197.331 C 269.043 199.065,269.981 199.200,281.639 199.200 C 293.878 199.200,293.503 199.312,292.237 196.027 C 291.849 195.022,291.340 193.449,291.106 192.531 C 290.812 191.383,290.417 190.791,289.840 190.636 C 287.966 190.133,240.173 190.384,239.528 190.900 M299.900 190.832 C 299.515 191.056,299.200 191.643,299.200 192.135 C 299.200 192.628,298.852 193.713,298.427 194.547 C 296.135 199.043,296.464 199.187,309.074 199.194 C 319.498 199.200,321.600 198.971,321.600 197.829 C 321.600 195.208,323.016 194.714,323.690 197.100 L 324.227 199.000 336.873 199.106 C 352.598 199.237,351.600 199.538,351.600 194.657 C 351.600 191.092,351.552 190.881,350.700 190.652 C 349.085 190.219,300.658 190.391,299.900 190.832 M51.751 208.880 C 51.054 210.007,51.078 215.821,51.782 216.525 C 52.714 217.457,77.200 217.564,77.967 216.640 C 78.266 216.279,78.390 214.754,78.316 212.340 L 78.200 208.600 65.127 208.495 C 55.141 208.414,51.982 208.505,51.751 208.880 M126.480 208.880 C 125.832 209.528,125.832 216.072,126.480 216.720 C 127.285 217.525,205.436 217.404,205.746 216.598 C 205.898 216.200,204.703 214.704,202.228 212.198 L 198.480 208.400 162.720 208.400 C 135.440 208.400,126.846 208.514,126.480 208.880 M239.420 208.900 C 239.061 210.053,238.911 215.932,239.227 216.444 C 239.660 217.145,264.293 217.499,265.559 216.822 C 266.335 216.407,266.542 210.001,265.818 208.829 C 265.409 208.167,239.626 208.236,239.420 208.900 M272.800 208.692 C 272.800 208.853,273.151 209.888,273.579 210.992 C 274.008 212.097,274.454 213.466,274.571 214.035 C 274.687 214.604,275.160 215.549,275.620 216.135 L 276.458 217.200 295.129 217.187 C 309.911 217.177,313.944 217.065,314.492 216.649 C 315.303 216.033,317.597 210.608,317.599 209.300 L 317.600 208.400 295.200 208.400 C 282.880 208.400,272.800 208.532,272.800 208.692 M324.267 208.667 C 323.933 209.000,323.913 215.708,324.243 216.567 C 324.529 217.313,348.666 217.535,350.574 216.810 C 351.854 216.323,352.166 210.223,350.971 209.029 C 350.316 208.373,324.904 208.029,324.267 208.667 M51.763 226.860 C 51.199 227.772,51.081 233.146,51.596 234.391 L 52.097 235.600 64.834 235.600 C 79.755 235.600,78.495 236.095,78.315 230.298 L 78.200 226.600 65.127 226.495 C 55.427 226.416,51.979 226.511,51.763 226.860 M126.414 227.174 C 126.186 227.599,126.000 229.321,126.000 231.000 C 126.000 236.011,124.773 235.600,139.752 235.600 C 155.003 235.600,154.000 235.921,154.000 231.042 C 154.000 225.978,155.272 226.400,140.000 226.400 C 127.387 226.400,126.811 226.433,126.414 227.174 M183.407 226.789 C 183.047 227.371,182.997 234.948,183.349 235.518 C 183.667 236.032,210.875 236.253,212.182 235.752 C 212.976 235.447,212.679 231.783,211.601 228.600 L 210.924 226.600 197.289 226.495 C 188.520 226.427,183.565 226.532,183.407 226.789 M239.421 226.900 C 239.336 227.175,239.170 228.856,239.051 230.636 C 238.695 235.968,237.673 235.600,252.833 235.600 L 265.620 235.600 265.949 234.700 C 266.321 233.686,266.213 227.468,265.813 226.821 C 265.408 226.166,239.623 226.243,239.421 226.900 M279.708 228.095 C 279.941 230.189,281.558 234.440,282.352 235.045 C 282.933 235.486,307.232 236.107,308.289 235.708 C 308.558 235.606,308.901 234.865,309.050 234.061 C 309.200 233.258,309.642 231.970,310.032 231.200 C 310.423 230.430,310.800 229.080,310.871 228.200 L 311.000 226.600 295.259 226.495 L 279.519 226.391 279.708 228.095 M324.243 227.033 C 323.930 227.847,323.937 233.524,324.252 234.700 L 324.493 235.600 337.385 235.600 C 352.803 235.600,351.763 235.967,351.542 230.608 C 351.439 228.105,351.237 227.068,350.800 226.791 C 349.655 226.068,324.526 226.296,324.243 227.033 M33.285 244.739 C 32.907 244.979,32.801 246.168,32.885 249.233 L 33.000 253.400 64.975 253.502 C 90.290 253.583,97.016 253.500,97.269 253.102 C 97.641 252.516,97.701 246.618,97.348 245.300 L 97.107 244.400 65.453 244.406 C 48.044 244.409,33.568 244.559,33.285 244.739 M107.390 245.300 C 107.266 245.795,107.218 247.820,107.282 249.800 L 107.400 253.400 157.402 253.502 L 207.405 253.603 208.502 252.585 C 209.106 252.026,209.601 251.260,209.603 250.884 C 209.604 250.508,209.963 249.660,210.400 249.000 C 211.194 247.801,211.415 246.226,210.957 245.033 C 210.738 244.460,205.802 244.400,159.165 244.400 L 107.615 244.400 107.390 245.300 M220.839 245.660 C 220.353 247.053,220.276 249.795,220.657 252.100 L 220.905 253.600 243.452 253.600 L 266.000 253.600 266.048 252.500 C 266.261 247.633,266.106 245.112,265.574 244.775 C 265.249 244.570,255.524 244.410,243.139 244.406 L 221.278 244.400 220.839 245.660 M286.264 244.979 C 285.927 245.856,286.917 249.983,287.923 251.900 L 288.816 253.600 295.133 253.600 L 301.450 253.600 302.307 252.440 C 302.779 251.802,303.278 250.767,303.416 250.140 C 303.555 249.513,303.901 248.370,304.185 247.600 C 305.347 244.454,305.196 244.400,295.256 244.400 C 287.973 244.400,286.448 244.498,286.264 244.979 M324.253 245.297 C 323.937 246.475,323.930 252.151,324.243 252.967 C 324.460 253.534,326.844 253.600,347.056 253.600 L 369.626 253.600 369.513 249.100 L 369.400 244.600 346.948 244.497 L 324.495 244.393 324.253 245.297 M33.500 263.076 C 32.890 263.235,32.800 263.794,32.800 267.432 L 32.800 271.605 65.100 271.502 L 97.400 271.400 97.518 268.000 C 97.583 266.130,97.535 264.195,97.410 263.700 L 97.185 262.800 65.692 262.846 C 48.372 262.872,33.885 262.975,33.500 263.076 M107.233 263.360 C 106.934 263.721,106.810 265.246,106.884 267.660 L 107.000 271.400 144.188 271.502 C 164.821 271.559,182.183 271.445,183.188 271.248 C 186.735 270.549,190.209 269.509,190.831 268.959 C 191.179 268.651,191.692 268.400,191.973 268.400 C 192.769 268.400,196.535 266.278,197.120 265.500 C 197.409 265.115,197.860 264.797,198.123 264.794 C 199.222 264.780,199.776 264.094,199.225 263.430 C 198.476 262.528,107.981 262.459,107.233 263.360 M220.896 263.595 C 220.367 264.443,220.249 267.634,220.657 270.100 L 220.905 271.600 243.452 271.600 L 266.000 271.600 266.047 270.700 C 266.303 265.858,266.208 263.865,265.700 263.357 C 264.667 262.324,221.547 262.552,220.896 263.595 M292.447 263.344 C 292.105 263.755,292.183 264.315,292.766 265.644 C 293.190 266.610,293.664 268.089,293.819 268.932 C 294.300 271.546,296.178 271.790,296.645 269.300 C 296.797 268.490,297.265 267.051,297.684 266.103 C 298.875 263.410,298.457 262.800,295.422 262.800 C 293.782 262.800,292.740 262.991,292.447 263.344 M324.190 263.700 C 324.065 264.195,324.017 266.130,324.082 268.000 L 324.200 271.400 346.800 271.400 L 369.400 271.400 369.518 268.000 C 369.583 266.130,369.535 264.195,369.410 263.700 L 369.185 262.800 346.800 262.800 L 324.415 262.800 324.190 263.700 " stroke="none" fill="#ececec" fill-rule="evenodd"></path><path id="path1" d="M0.000 200.000 L 0.000 400.000 200.000 400.000 L 400.000 400.000 400.000 200.000 L 400.000 0.000 200.000 0.000 L 0.000 0.000 0.000 200.000 M272.433 135.906 C 272.658 136.508,273.192 137.732,273.621 138.626 C 274.049 139.521,274.400 141.008,274.400 141.932 C 274.400 142.855,274.621 143.964,274.890 144.396 C 276.118 146.361,275.949 146.374,247.100 146.387 C 215.392 146.402,218.800 147.142,218.800 140.249 C 218.800 133.853,215.172 134.574,246.682 134.706 L 272.024 134.812 272.433 135.906 M370.900 135.523 C 372.130 136.579,371.915 144.121,370.618 145.418 L 369.636 146.400 343.118 146.394 C 314.087 146.388,314.482 146.418,314.730 144.183 C 314.802 143.537,315.021 142.815,315.219 142.577 C 315.416 142.340,315.783 141.168,316.035 139.973 C 316.287 138.778,316.690 137.556,316.931 137.257 C 317.172 136.959,317.561 136.329,317.796 135.857 L 318.223 135.000 343.612 134.800 C 370.302 134.590,369.798 134.576,370.900 135.523 M99.037 135.801 C 100.126 137.462,99.690 144.636,98.440 145.648 C 97.354 146.527,33.990 146.851,32.374 145.986 C 31.589 145.566,31.136 135.798,31.867 135.067 C 32.013 134.920,47.039 134.800,65.257 134.800 L 98.382 134.800 99.037 135.801 M186.600 135.600 C 187.260 136.037,188.198 136.396,188.684 136.397 C 189.171 136.399,189.891 136.744,190.284 137.165 C 190.678 137.585,191.705 138.061,192.566 138.222 C 193.427 138.382,194.758 138.938,195.522 139.457 C 196.286 139.976,197.067 140.400,197.256 140.400 C 197.445 140.400,197.600 140.670,197.600 141.000 C 197.600 141.330,197.888 141.600,198.240 141.600 C 199.970 141.600,202.017 144.726,200.971 145.771 C 199.894 146.849,107.279 146.716,105.944 145.636 C 104.797 144.707,104.488 136.743,105.549 135.463 C 106.487 134.331,184.885 134.464,186.600 135.600 M98.621 153.364 C 99.982 154.725,100.013 162.024,98.663 163.374 L 97.636 164.400 65.098 164.400 C 40.324 164.400,32.445 164.285,32.080 163.920 C 31.295 163.135,31.428 153.829,32.235 153.022 C 33.312 151.945,97.533 152.276,98.621 153.364 M208.320 152.644 C 209.209 152.822,209.670 153.228,210.022 154.144 C 210.287 154.835,210.856 156.162,211.285 157.094 C 212.181 159.040,212.364 162.880,211.604 163.796 C 211.161 164.329,205.005 164.400,159.133 164.400 L 107.164 164.400 106.182 163.418 C 104.402 161.638,104.942 153.452,106.892 152.668 C 107.621 152.374,206.855 152.351,208.320 152.644 M278.186 153.641 C 279.272 154.595,279.600 155.191,279.600 156.213 C 279.600 156.944,279.882 157.825,280.228 158.171 C 281.658 159.601,282.043 163.335,280.826 163.986 C 279.416 164.741,220.779 164.541,219.689 163.777 C 218.269 162.783,218.340 154.824,219.782 153.382 L 220.764 152.400 248.768 152.400 L 276.772 152.400 278.186 153.641 M370.456 153.164 C 372.040 154.445,372.134 162.322,370.580 163.544 L 369.492 164.400 339.590 164.400 C 305.575 164.400,307.433 164.580,308.585 161.400 C 308.904 160.520,309.173 159.479,309.182 159.087 C 309.192 158.696,309.457 158.276,309.770 158.156 C 310.084 158.036,310.465 157.186,310.617 156.269 C 310.976 154.101,311.452 153.235,312.526 152.803 C 314.548 151.988,369.425 152.330,370.456 153.164 M79.474 171.670 C 80.330 172.474,80.400 172.862,80.400 176.834 L 80.400 181.129 79.152 182.179 L 77.903 183.230 64.365 183.115 C 52.000 183.010,50.766 182.938,50.114 182.287 C 49.040 181.213,48.832 173.945,49.823 172.106 L 50.526 170.800 64.537 170.800 C 78.372 170.800,78.560 170.811,79.474 171.670 M153.840 171.106 C 155.423 172.163,155.865 180.290,154.435 182.056 L 153.671 183.000 139.801 183.000 L 125.931 183.000 124.931 181.837 C 123.477 180.148,123.630 172.789,125.144 171.564 C 126.128 170.768,152.699 170.344,153.840 171.106 M212.546 171.629 C 213.777 172.597,214.045 176.137,213.035 178.073 C 212.727 178.663,212.358 179.680,212.215 180.332 C 211.621 183.037,211.841 183.000,196.323 183.000 L 182.329 183.000 181.565 182.056 C 180.395 180.611,180.441 173.365,181.629 171.854 L 182.458 170.800 196.975 170.800 C 211.056 170.800,211.524 170.825,212.546 171.629 M284.740 172.004 C 286.166 173.307,286.800 174.934,286.800 177.294 C 286.800 178.360,287.031 178.938,287.600 179.293 C 288.572 179.900,288.641 181.471,287.738 182.469 C 286.686 183.631,240.183 183.600,238.744 182.436 C 237.490 181.421,237.091 174.144,238.175 172.048 L 238.821 170.800 261.121 170.800 L 283.422 170.800 284.740 172.004 M352.177 171.689 C 352.651 172.365,352.800 173.651,352.800 177.060 C 352.800 183.863,355.612 183.200,326.760 183.200 L 302.828 183.200 302.356 182.317 C 301.681 181.057,301.818 179.524,302.772 177.655 C 303.227 176.762,303.600 175.412,303.600 174.655 C 303.600 173.548,303.894 173.037,305.100 172.052 L 306.600 170.827 329.077 170.813 L 351.555 170.800 352.177 171.689 M79.368 189.570 C 80.760 190.877,80.952 198.430,79.635 200.056 L 78.871 201.000 64.655 201.000 C 47.795 201.000,49.400 201.626,49.400 195.053 C 49.400 187.901,48.043 188.458,65.268 188.539 L 78.337 188.600 79.368 189.570 M206.171 189.029 C 207.218 190.076,206.976 192.589,205.700 193.919 C 205.095 194.550,203.675 196.086,202.545 197.333 C 201.414 198.580,200.317 199.600,200.107 199.600 C 199.896 199.600,199.398 199.960,199.000 200.400 C 198.286 201.189,197.768 201.200,162.507 201.200 L 126.738 201.200 125.569 200.031 C 124.469 198.930,124.396 198.654,124.327 195.331 C 124.207 189.551,124.220 189.514,126.600 188.740 C 128.581 188.096,205.518 188.375,206.171 189.029 M289.712 188.767 C 291.188 189.328,292.000 190.338,292.000 191.613 C 292.000 192.249,292.340 193.091,292.754 193.484 C 293.169 193.878,293.637 194.975,293.793 195.923 C 294.197 198.366,296.045 198.303,296.443 195.833 C 296.582 194.971,296.966 194.068,297.297 193.826 C 297.628 193.584,298.024 192.640,298.178 191.729 C 298.744 188.380,296.814 188.600,325.600 188.600 C 356.037 188.600,352.800 187.855,352.800 194.862 C 352.800 201.776,354.153 201.201,337.900 201.194 C 324.013 201.187,324.030 201.189,323.212 199.636 C 322.728 198.719,322.684 198.709,322.302 199.436 C 321.393 201.167,321.143 201.200,309.224 201.194 C 300.542 201.189,297.418 201.055,296.210 200.635 C 294.852 200.162,294.503 200.163,293.821 200.641 C 293.181 201.089,290.696 201.200,281.311 201.200 C 268.571 201.200,268.000 201.097,268.000 198.800 C 268.000 198.360,267.820 198.000,267.600 198.000 C 267.380 198.000,267.200 198.320,267.200 198.711 C 267.200 201.203,267.217 201.201,252.677 201.194 C 245.375 201.191,239.186 201.052,238.925 200.886 C 236.640 199.433,237.199 189.426,239.603 188.757 C 241.123 188.334,288.598 188.343,289.712 188.767 M79.169 207.436 L 80.400 208.471 80.400 212.791 C 80.400 216.448,80.283 217.256,79.636 218.056 L 78.872 219.000 66.536 219.126 C 48.564 219.310,49.600 219.697,49.600 212.800 C 49.600 205.902,48.416 206.400,64.823 206.400 L 77.939 206.400 79.169 207.436 M199.957 207.900 C 206.551 213.279,209.174 217.910,206.127 218.796 C 203.258 219.630,125.794 219.166,124.938 218.309 C 124.183 217.555,123.678 211.640,124.153 209.111 C 124.686 206.266,122.477 206.423,162.359 206.411 L 198.118 206.400 199.957 207.900 M266.577 207.289 C 267.431 208.508,267.475 217.071,266.633 218.224 C 266.034 219.043,245.824 219.642,240.508 218.998 C 237.877 218.679,237.449 217.615,237.659 211.915 C 237.878 205.956,236.673 206.400,252.639 206.400 C 265.946 206.400,265.955 206.401,266.577 207.289 M318.436 207.149 C 319.475 207.990,319.055 212.529,317.857 213.407 C 317.552 213.631,317.177 214.555,317.024 215.461 C 316.367 219.345,316.871 219.265,294.132 219.119 L 275.664 219.000 274.645 218.043 C 273.873 217.317,273.563 216.524,273.364 214.760 C 273.193 213.250,272.837 212.196,272.350 211.755 C 271.398 210.894,271.322 207.935,272.229 207.029 C 273.284 205.973,317.124 206.087,318.436 207.149 M351.874 207.270 C 353.020 208.346,353.295 216.770,352.232 218.224 C 351.458 219.283,324.257 219.451,323.592 218.400 C 322.906 217.316,323.105 207.752,323.829 207.029 C 324.973 205.884,350.634 206.104,351.874 207.270 M79.200 225.717 C 80.493 226.370,80.974 234.969,79.784 236.159 C 78.883 237.059,50.779 237.139,50.036 236.243 C 49.729 235.873,49.612 234.101,49.687 230.954 C 49.836 224.712,48.503 225.212,65.000 225.212 C 74.837 225.212,78.455 225.340,79.200 225.717 M154.624 225.768 C 155.616 226.493,155.802 234.992,154.851 236.139 C 154.239 236.876,125.990 237.161,124.852 236.441 C 123.415 235.530,123.819 226.210,125.322 225.604 C 126.918 224.961,153.725 225.111,154.624 225.768 M211.400 225.506 C 213.097 226.753,213.673 228.479,213.736 232.509 L 213.800 236.552 212.200 236.893 C 209.382 237.492,182.636 237.095,181.849 236.441 C 180.618 235.418,181.082 226.383,182.400 225.717 C 183.510 225.156,210.655 224.959,211.400 225.506 M266.571 225.829 C 267.216 226.473,267.523 234.693,266.957 236.167 C 266.742 236.728,265.097 236.800,252.547 236.800 L 238.380 236.800 237.990 235.774 C 237.215 233.736,237.502 226.898,238.400 226.000 C 239.503 224.897,265.482 224.739,266.571 225.829 M312.174 225.590 C 313.336 226.032,313.497 227.009,312.575 228.027 C 312.232 228.407,311.802 229.771,311.619 231.059 C 311.229 233.805,309.493 236.773,308.229 236.852 C 307.773 236.881,301.550 236.866,294.400 236.820 C 280.218 236.729,280.400 236.760,280.400 234.420 C 280.400 233.826,280.063 233.182,279.600 232.893 C 279.117 232.591,278.799 231.958,278.798 231.297 C 278.796 230.693,278.526 229.684,278.198 229.054 C 277.337 227.405,277.446 226.196,278.500 225.688 C 279.670 225.124,310.710 225.034,312.174 225.590 M351.774 225.590 C 352.999 226.056,353.414 235.392,352.253 236.356 C 351.862 236.681,347.665 236.780,337.553 236.705 L 323.400 236.600 323.288 231.456 C 323.212 228.004,323.327 226.129,323.637 225.756 C 324.197 225.081,350.035 224.929,351.774 225.590 M98.638 244.042 C 99.901 245.438,99.764 252.976,98.456 254.035 C 97.283 254.985,33.020 255.260,32.080 254.320 C 31.416 253.656,31.416 244.344,32.080 243.680 C 32.445 243.315,40.351 243.200,65.218 243.200 L 97.876 243.200 98.638 244.042 M212.099 243.757 C 213.469 245.126,210.666 254.021,208.698 254.549 C 208.204 254.681,185.082 254.792,157.316 254.795 L 106.831 254.800 106.016 253.925 C 104.540 252.341,104.945 244.584,106.560 243.506 C 107.469 242.899,211.489 243.146,212.099 243.757 M266.720 243.680 C 267.040 244.000,267.200 245.769,267.200 249.000 C 267.200 252.231,267.040 254.000,266.720 254.320 C 265.905 255.135,220.861 254.998,219.689 254.177 C 218.859 253.596,218.800 253.253,218.800 249.000 C 218.800 244.747,218.859 244.404,219.689 243.823 C 220.861 243.002,265.905 242.865,266.720 243.680 M306.003 243.803 C 306.720 244.667,306.282 247.716,305.252 249.024 C 304.784 249.620,304.400 250.659,304.400 251.332 C 304.400 252.116,304.013 252.960,303.325 253.678 L 302.250 254.800 295.214 254.800 C 286.558 254.800,285.600 254.224,285.600 249.023 C 285.600 248.460,285.240 247.640,284.800 247.200 C 283.918 246.318,283.779 245.160,284.414 243.974 C 284.979 242.917,305.135 242.758,306.003 243.803 M370.624 243.767 C 371.862 244.672,372.030 252.770,370.834 253.966 C 370.007 254.793,325.895 255.349,323.833 254.557 C 323.175 254.305,322.838 244.095,323.467 243.467 C 324.059 242.875,369.801 243.166,370.624 243.767 M97.355 261.183 C 99.831 262.124,100.669 269.868,98.564 272.369 L 97.529 273.600 65.296 273.600 C 27.298 273.600,31.600 274.390,31.600 267.414 C 31.600 262.186,31.852 261.387,33.600 261.083 C 35.722 260.714,96.372 260.809,97.355 261.183 M201.123 261.500 C 202.333 262.544,201.898 264.491,200.263 265.351 C 199.568 265.716,198.280 266.548,197.400 267.201 C 195.262 268.785,191.150 270.800,190.054 270.800 C 189.569 270.800,188.693 271.115,188.108 271.500 C 185.604 273.148,182.005 273.306,143.539 273.461 L 106.878 273.608 105.839 272.373 C 103.824 269.979,104.480 262.492,106.808 261.314 C 108.599 260.407,200.066 260.588,201.123 261.500 M266.632 261.776 C 267.475 262.929,267.432 271.491,266.577 272.711 L 265.955 273.600 243.436 273.600 L 220.917 273.600 219.858 272.619 C 218.839 271.674,218.800 271.478,218.800 267.296 C 218.800 262.819,219.002 262.141,220.600 261.256 C 222.231 260.353,265.953 260.847,266.632 261.776 M298.581 261.264 C 299.344 261.612,299.600 262.030,299.600 262.931 C 299.600 265.042,298.731 269.211,298.176 269.767 C 297.881 270.062,297.523 270.768,297.381 271.335 C 296.604 274.431,292.800 273.285,292.800 269.955 C 292.800 269.299,292.545 268.677,292.226 268.555 C 290.799 268.007,290.359 261.935,291.700 261.288 C 292.913 260.703,297.317 260.688,298.581 261.264 M369.622 261.212 C 371.887 262.424,372.529 270.034,370.564 272.369 L 369.529 273.600 346.779 273.600 C 320.154 273.600,323.200 274.446,323.200 267.049 C 323.200 262.332,323.251 262.010,324.089 261.423 C 325.173 260.663,368.225 260.464,369.622 261.212 " stroke="none" fill="#040404" fill-rule="evenodd"></path><path id="path2" d="M220.489 135.423 C 218.848 136.572,219.215 144.770,220.947 145.660 C 221.758 146.077,221.755 146.056,220.887 145.221 C 220.031 144.400,219.981 144.074,220.087 140.072 L 220.200 135.800 221.600 135.323 C 222.496 135.017,222.708 134.837,222.189 134.823 C 221.743 134.810,220.978 135.080,220.489 135.423 M97.490 135.691 C 97.711 135.971,97.993 136.470,98.115 136.800 C 98.266 137.210,98.347 137.128,98.368 136.543 C 98.386 136.071,98.105 135.572,97.743 135.434 C 97.252 135.245,97.188 135.310,97.490 135.691 M180.705 135.483 C 181.202 135.579,181.922 135.575,182.305 135.475 C 182.687 135.375,182.280 135.296,181.400 135.301 C 180.520 135.305,180.207 135.387,180.705 135.483 M184.200 136.000 C 184.640 136.189,185.270 136.344,185.600 136.344 C 185.978 136.344,185.904 136.217,185.400 136.000 C 184.960 135.811,184.330 135.656,184.000 135.656 C 183.622 135.656,183.696 135.783,184.200 136.000 M32.150 140.200 C 32.151 142.620,32.216 143.558,32.296 142.285 C 32.376 141.012,32.375 139.032,32.294 137.885 C 32.214 136.738,32.149 137.780,32.150 140.200 M106.150 140.200 C 106.151 142.620,106.216 143.558,106.296 142.285 C 106.376 141.012,106.375 139.032,106.294 137.885 C 106.214 136.738,106.149 137.780,106.150 140.200 M272.428 138.600 C 272.428 138.820,272.686 139.450,273.000 140.000 C 273.314 140.550,273.572 140.820,273.572 140.600 C 273.572 140.380,273.314 139.750,273.000 139.200 C 272.686 138.650,272.428 138.380,272.428 138.600 M196.727 141.400 C 197.381 141.950,198.038 142.400,198.188 142.400 C 198.339 142.400,197.927 141.950,197.273 141.400 C 196.619 140.850,195.962 140.400,195.812 140.400 C 195.661 140.400,196.073 140.850,196.727 141.400 M199.224 143.200 C 199.497 143.750,199.918 144.335,200.160 144.500 C 200.464 144.707,200.414 144.933,200.000 145.230 C 199.511 145.581,199.507 145.632,199.975 145.505 C 200.900 145.255,200.838 144.681,199.749 143.400 C 198.852 142.345,198.789 142.321,199.224 143.200 M315.737 144.169 C 315.772 144.829,316.062 145.409,316.400 145.500 C 316.801 145.607,316.848 145.551,316.540 145.330 C 316.288 145.149,315.989 144.550,315.877 144.000 C 315.701 143.139,315.682 143.162,315.737 144.169 M370.032 143.969 C 370.014 144.281,369.692 144.911,369.315 145.369 C 368.669 146.153,368.683 146.151,369.562 145.342 C 370.075 144.870,370.397 144.240,370.279 143.942 C 370.104 143.503,370.057 143.508,370.032 143.969 M206.800 153.031 C 206.800 153.301,208.878 154.056,209.076 153.857 C 209.167 153.767,208.692 153.501,208.020 153.267 C 207.349 153.033,206.800 152.927,206.800 153.031 M369.248 153.400 C 369.604 153.840,369.995 154.470,370.116 154.800 C 370.303 155.309,370.342 155.304,370.368 154.762 C 370.386 154.411,369.995 153.781,369.500 153.362 C 368.608 152.606,368.606 152.607,369.248 153.400 M96.475 153.484 C 97.197 153.594,97.679 154.001,97.943 154.724 C 98.160 155.316,98.351 155.563,98.368 155.274 C 98.437 154.129,97.569 153.200,96.486 153.260 L 95.400 153.320 96.475 153.484 M106.880 153.680 C 106.616 153.944,106.400 154.338,106.400 154.556 C 106.400 154.775,106.625 154.661,106.900 154.305 C 107.175 153.948,107.850 153.578,108.400 153.483 L 109.400 153.309 108.380 153.254 C 107.819 153.225,107.144 153.416,106.880 153.680 M219.843 154.633 C 219.242 156.199,219.586 162.691,220.300 163.251 C 220.931 163.746,220.947 163.733,220.463 163.115 C 220.069 162.612,219.963 161.306,220.063 158.214 C 220.138 155.896,220.174 153.999,220.143 154.000 C 220.111 154.000,219.976 154.285,219.843 154.633 M32.134 160.000 C 32.134 161.650,32.205 162.325,32.291 161.500 C 32.378 160.675,32.378 159.325,32.291 158.500 C 32.205 157.675,32.134 158.350,32.134 160.000 M310.378 158.298 C 309.474 160.101,309.487 160.279,310.420 158.883 C 310.904 158.159,311.217 157.483,311.115 157.382 C 311.013 157.280,310.681 157.692,310.378 158.298 M279.625 159.000 C 279.625 159.220,279.890 159.749,280.213 160.176 C 280.536 160.604,280.800 160.773,280.800 160.553 C 280.800 160.333,280.536 159.804,280.213 159.376 C 279.890 158.949,279.625 158.780,279.625 159.000 M49.730 163.900 C 58.271 163.960,72.131 163.960,80.530 163.900 C 88.928 163.840,81.940 163.790,65.000 163.790 C 48.060 163.790,41.188 163.840,49.730 163.900 M134.100 163.900 C 147.905 163.958,170.495 163.958,184.300 163.900 C 198.105 163.842,186.810 163.794,159.200 163.794 C 131.590 163.794,120.295 163.842,134.100 163.900 M235.500 163.900 C 243.475 163.960,256.525 163.960,264.500 163.900 C 272.475 163.839,265.950 163.790,250.000 163.790 C 234.050 163.790,227.525 163.839,235.500 163.900 M325.900 163.900 C 333.875 163.960,346.925 163.960,354.900 163.900 C 362.875 163.839,356.350 163.790,340.400 163.790 C 324.450 163.790,317.925 163.839,325.900 163.900 M51.114 171.928 C 50.736 172.078,56.704 172.200,64.375 172.200 C 72.047 172.200,78.240 172.065,78.138 171.900 C 77.908 171.527,52.058 171.554,51.114 171.928 M126.538 171.906 C 126.284 172.068,132.252 172.200,139.800 172.200 C 147.348 172.200,153.316 172.068,153.062 171.906 C 152.808 171.744,146.840 171.612,139.800 171.612 C 132.760 171.612,126.792 171.744,126.538 171.906 M182.344 172.424 L 181.400 173.247 182.445 172.614 C 183.356 172.061,185.291 171.994,197.507 172.090 C 205.217 172.150,211.441 172.065,211.338 171.900 C 210.829 171.077,183.318 171.574,182.344 172.424 M238.976 172.230 C 238.549 172.576,238.470 172.711,238.800 172.530 C 239.130 172.348,249.210 172.107,261.200 171.993 L 283.000 171.786 261.376 171.693 C 242.207 171.611,239.665 171.671,238.976 172.230 M328.880 171.993 C 344.823 172.141,351.291 172.330,351.618 172.658 C 351.922 172.962,352.029 174.526,351.938 177.321 C 351.862 179.634,351.932 181.318,352.094 181.064 C 352.256 180.809,352.391 178.855,352.394 176.723 C 352.403 171.074,354.805 171.582,328.611 171.693 L 306.600 171.787 328.880 171.993 M283.533 172.276 C 283.826 172.393,284.410 173.054,284.831 173.744 C 285.252 174.435,285.598 174.799,285.599 174.554 C 285.601 173.882,284.009 171.995,283.471 172.032 C 283.172 172.052,283.194 172.141,283.533 172.276 M79.125 176.597 C 79.262 181.126,78.848 181.955,76.411 182.032 C 75.855 182.049,75.633 182.157,75.917 182.271 C 76.660 182.569,78.240 182.103,78.972 181.371 C 79.638 180.704,79.927 173.050,79.300 172.661 C 79.135 172.558,79.056 174.329,79.125 176.597 M125.067 172.667 C 123.682 174.052,125.099 182.008,126.729 181.994 C 127.189 181.990,127.085 181.829,126.400 181.481 C 125.427 180.988,125.400 180.858,125.400 176.687 C 125.400 174.328,125.385 172.399,125.367 172.400 C 125.348 172.400,125.213 172.520,125.067 172.667 M154.315 175.736 C 154.488 180.528,154.684 181.113,154.739 177.000 C 154.766 175.020,154.655 173.191,154.493 172.936 C 154.330 172.681,154.250 173.941,154.315 175.736 M212.352 174.533 C 212.465 176.065,212.587 176.393,212.824 175.800 C 213.310 174.585,213.257 173.345,212.700 172.882 C 212.308 172.557,212.233 172.913,212.352 174.533 M211.822 178.222 C 211.672 179.025,211.628 179.762,211.726 179.860 C 211.824 179.957,212.027 179.381,212.178 178.578 C 212.328 177.775,212.372 177.038,212.274 176.940 C 212.176 176.843,211.973 177.419,211.822 178.222 M50.349 181.300 C 50.651 181.685,51.281 181.979,51.749 181.954 C 52.557 181.910,52.560 181.897,51.800 181.711 C 51.360 181.602,50.730 181.308,50.400 181.057 C 49.878 180.660,49.872 180.691,50.349 181.300 M181.949 181.300 C 182.251 181.685,182.881 181.979,183.349 181.954 C 184.157 181.910,184.160 181.897,183.400 181.711 C 182.960 181.602,182.330 181.308,182.000 181.057 C 181.478 180.660,181.472 180.691,181.949 181.300 M286.400 181.461 C 285.441 181.967,285.436 181.988,286.276 181.994 C 286.758 181.997,287.271 181.808,287.416 181.573 C 287.821 180.918,287.498 180.883,286.400 181.461 M50.368 190.300 C 49.918 190.896,49.922 190.925,50.399 190.500 C 51.123 189.854,77.231 189.774,78.426 190.414 C 79.728 191.111,79.579 198.533,78.246 199.407 C 76.637 200.461,51.362 200.111,50.567 199.024 C 50.255 198.596,50.000 198.451,50.000 198.701 C 50.000 200.658,76.691 201.479,78.725 199.584 C 79.942 198.450,80.052 191.333,78.869 190.262 C 77.720 189.223,51.157 189.258,50.368 190.300 M125.689 190.223 C 125.200 190.565,124.811 191.150,124.825 191.523 C 124.844 192.015,124.950 191.954,125.212 191.300 C 125.411 190.805,125.625 190.357,125.687 190.305 C 125.749 190.253,143.620 190.116,165.400 190.001 L 205.000 189.792 165.789 189.696 C 130.846 189.610,126.481 189.668,125.689 190.223 M238.768 190.300 C 238.318 190.896,238.322 190.925,238.799 190.500 C 239.904 189.515,289.803 189.803,290.800 190.800 C 291.240 191.240,291.600 191.430,291.600 191.223 C 291.600 189.646,290.840 189.600,264.560 189.600 C 240.969 189.600,239.263 189.646,238.768 190.300 M325.363 189.900 C 344.100 189.978,351.075 190.130,351.487 190.472 C 351.918 190.830,352.020 191.888,351.924 195.032 C 351.856 197.284,351.935 199.042,352.100 198.939 C 352.805 198.501,352.429 190.950,351.669 190.262 C 351.001 189.658,348.683 189.609,325.369 189.697 L 299.800 189.794 325.363 189.900 M292.100 194.006 C 292.427 194.559,292.826 195.607,292.986 196.334 C 293.342 197.959,293.698 197.789,293.370 196.151 C 293.241 195.504,292.768 194.530,292.320 193.987 L 291.505 193.000 292.100 194.006 M321.986 198.034 C 321.218 199.887,320.449 200.000,308.623 200.000 C 297.169 200.000,297.130 199.994,296.689 198.200 C 296.506 197.455,296.490 197.460,296.446 198.271 C 296.337 200.328,296.761 200.400,309.047 200.400 L 320.436 200.400 321.318 199.438 C 323.210 197.375,323.543 196.800,322.849 196.800 C 322.655 196.800,322.267 197.355,321.986 198.034 M125.600 198.663 C 125.600 200.435,124.865 200.401,162.631 200.391 C 198.154 200.382,198.201 200.381,199.200 199.544 L 200.200 198.705 199.114 199.353 C 198.135 199.936,194.534 200.000,162.630 200.000 L 127.231 200.000 126.416 199.125 C 125.967 198.643,125.600 198.435,125.600 198.663 M238.967 199.533 C 239.922 200.626,265.951 200.748,266.313 199.661 C 266.455 199.236,266.320 199.215,265.673 199.561 C 264.180 200.360,240.399 200.150,239.189 199.328 L 238.200 198.655 238.967 199.533 M293.062 199.383 C 292.778 200.123,271.738 200.317,269.726 199.598 C 268.676 199.222,268.652 199.236,269.376 199.798 C 271.302 201.292,295.015 200.481,293.506 198.973 C 293.392 198.859,293.192 199.043,293.062 199.383 M323.949 199.700 C 324.519 200.427,349.131 200.767,350.888 200.072 C 351.266 199.922,345.535 199.854,338.153 199.920 C 327.599 200.015,324.588 199.929,324.065 199.520 C 323.470 199.055,323.458 199.074,323.949 199.700 M77.600 207.901 L 79.000 208.600 79.115 212.552 C 79.287 218.459,80.481 218.000,64.954 218.000 C 52.175 218.000,52.022 217.990,51.216 217.125 C 50.767 216.643,50.400 216.435,50.400 216.663 C 50.400 218.286,51.351 218.400,64.931 218.400 C 80.757 218.400,79.600 218.839,79.600 212.829 C 79.600 208.646,78.892 207.199,76.846 207.201 C 76.491 207.201,76.830 207.516,77.600 207.901 M125.462 208.331 C 124.404 209.501,124.509 216.509,125.602 217.602 C 126.610 218.610,206.033 218.697,206.237 217.690 C 206.294 217.410,206.249 217.365,206.137 217.590 C 205.714 218.443,126.638 218.126,125.862 217.269 C 124.735 216.023,124.910 209.048,126.089 208.223 C 126.578 207.880,126.786 207.600,126.551 207.600 C 126.316 207.600,125.826 207.929,125.462 208.331 M265.700 208.032 C 266.085 208.256,266.400 208.821,266.400 209.287 C 266.400 209.752,266.512 210.022,266.648 209.885 C 267.140 209.393,266.386 207.600,265.692 207.612 C 265.041 207.624,265.041 207.648,265.700 208.032 M272.160 208.619 C 272.019 209.179,272.016 209.749,272.152 209.885 C 272.288 210.022,272.400 209.779,272.400 209.347 C 272.400 208.914,272.616 208.344,272.880 208.080 C 273.245 207.715,273.247 207.600,272.888 207.600 C 272.628 207.600,272.300 208.058,272.160 208.619 M351.111 208.223 C 352.266 209.032,352.472 216.270,351.371 217.371 C 350.361 218.382,324.623 218.314,324.032 217.300 C 323.808 216.915,323.619 216.789,323.612 217.020 C 323.575 218.305,324.554 218.400,337.857 218.400 C 353.672 218.400,352.408 218.886,352.387 212.811 C 352.374 208.966,351.950 207.600,350.767 207.600 C 350.454 207.600,350.601 207.866,351.111 208.223 M200.687 209.609 C 201.395 210.351,202.042 210.878,202.125 210.779 C 202.208 210.681,201.629 210.073,200.838 209.429 L 199.400 208.258 200.687 209.609 M318.046 210.067 C 318.021 210.434,317.896 211.064,317.770 211.467 C 317.552 212.162,317.563 212.163,317.997 211.487 C 318.248 211.096,318.373 210.466,318.273 210.087 C 318.111 209.468,318.088 209.466,318.046 210.067 M50.134 213.200 C 50.134 214.850,50.205 215.525,50.291 214.700 C 50.378 213.875,50.378 212.525,50.291 211.700 C 50.205 210.875,50.134 211.550,50.134 213.200 M204.197 213.300 C 205.272 214.565,206.223 215.600,206.310 215.600 C 206.583 215.600,204.129 212.636,203.164 211.800 C 202.656 211.360,203.121 212.035,204.197 213.300 M274.025 215.269 C 274.011 215.637,274.466 216.492,275.036 217.169 L 276.071 218.400 295.161 218.400 L 314.250 218.400 315.325 217.278 C 315.916 216.661,316.400 216.017,316.400 215.847 C 316.400 215.678,315.934 216.092,315.364 216.769 L 314.329 218.000 295.226 218.000 C 274.219 218.000,275.465 218.144,274.446 215.592 C 274.189 214.947,274.042 214.835,274.025 215.269 M238.400 217.091 C 238.400 218.298,239.507 218.400,252.656 218.400 C 259.969 218.400,266.036 218.265,266.138 218.100 C 266.241 217.935,260.329 217.850,253.001 217.910 C 241.235 218.008,239.603 217.946,239.039 217.382 C 238.688 217.030,238.400 216.900,238.400 217.091 M65.000 225.989 C 72.260 226.105,78.425 226.346,78.700 226.524 C 79.697 227.169,79.366 235.038,78.311 235.777 C 77.822 236.120,77.629 236.400,77.882 236.400 C 79.208 236.400,79.600 235.165,79.600 230.994 C 79.600 225.156,80.781 225.580,64.811 225.689 L 51.800 225.779 65.000 225.989 M125.689 226.223 C 124.859 226.804,124.806 227.114,124.884 230.923 L 124.967 235.000 125.099 231.004 C 125.172 228.807,125.413 226.827,125.635 226.604 C 125.883 226.356,131.324 226.119,139.719 225.990 L 153.400 225.779 139.989 225.690 C 128.400 225.612,126.457 225.685,125.689 226.223 M190.300 225.899 C 194.095 225.965,200.305 225.965,204.100 225.899 C 207.895 225.834,204.790 225.780,197.200 225.780 C 189.610 225.780,186.505 225.834,190.300 225.899 M252.782 225.992 L 266.164 226.200 266.442 227.200 C 266.675 228.038,266.727 228.067,266.760 227.380 C 266.845 225.633,266.525 225.595,252.620 225.692 L 239.400 225.784 252.782 225.992 M279.100 226.032 C 278.715 226.256,278.421 226.836,278.446 227.320 C 278.489 228.134,278.508 228.140,278.693 227.400 C 279.032 226.041,279.375 226.012,295.400 226.012 C 310.680 226.012,312.425 226.145,311.793 227.255 C 311.536 227.707,311.578 227.710,312.041 227.273 C 312.517 226.824,312.485 226.661,311.824 226.173 C 310.865 225.465,280.299 225.334,279.100 226.032 M324.261 225.900 C 324.159 226.065,328.063 226.154,332.938 226.098 C 349.463 225.908,351.043 225.772,337.724 225.686 C 330.422 225.639,324.364 225.735,324.261 225.900 M153.882 226.282 C 154.172 226.488,154.423 227.981,154.510 230.013 L 154.654 233.400 154.627 229.832 C 154.606 227.016,154.474 226.230,154.000 226.102 C 153.574 225.986,153.540 226.039,153.882 226.282 M182.417 226.580 C 181.927 227.170,181.707 235.041,182.168 235.501 C 182.296 235.629,182.400 233.759,182.400 231.347 C 182.400 228.468,182.565 226.795,182.880 226.480 C 183.144 226.216,183.256 226.000,183.129 226.000 C 183.002 226.000,182.682 226.261,182.417 226.580 M351.500 226.399 C 352.855 227.919,351.992 235.554,350.400 236.122 C 349.915 236.296,349.930 236.343,350.477 236.368 C 352.379 236.457,353.450 227.693,351.700 226.368 C 351.104 225.918,351.075 225.922,351.500 226.399 M50.134 231.200 C 50.134 232.850,50.205 233.525,50.291 232.700 C 50.378 231.875,50.378 230.525,50.291 229.700 C 50.205 228.875,50.134 229.550,50.134 231.200 M213.180 234.690 C 213.071 235.619,213.133 236.227,213.320 236.040 C 213.506 235.854,213.596 235.094,213.519 234.351 C 213.383 233.033,213.375 233.042,213.180 234.690 M266.446 234.680 C 266.421 235.164,266.085 235.744,265.700 235.968 C 265.315 236.192,265.203 236.381,265.451 236.388 C 266.163 236.407,266.884 235.309,266.679 234.519 C 266.530 233.943,266.484 233.974,266.446 234.680 M50.446 234.886 C 50.401 235.550,51.868 236.665,52.264 236.269 C 52.372 236.161,52.098 235.958,51.656 235.818 C 51.213 235.677,50.771 235.256,50.672 234.881 C 50.504 234.244,50.490 234.244,50.446 234.886 M238.412 235.051 C 238.394 235.711,239.491 236.509,240.087 236.269 C 240.417 236.137,240.358 236.052,239.920 236.032 C 239.546 236.014,239.056 235.685,238.832 235.300 C 238.608 234.915,238.419 234.803,238.412 235.051 M190.500 236.699 C 194.405 236.765,200.795 236.765,204.700 236.699 C 208.605 236.634,205.410 236.580,197.600 236.580 C 189.790 236.580,186.595 236.634,190.500 236.699 M304.307 236.690 C 305.026 236.779,306.106 236.777,306.707 236.686 C 307.308 236.595,306.720 236.522,305.400 236.524 C 304.080 236.526,303.588 236.601,304.307 236.690 M32.662 243.900 C 32.494 244.172,55.519 244.169,85.800 243.893 C 92.180 243.835,82.876 243.745,65.124 243.694 C 47.372 243.642,32.764 243.735,32.662 243.900 M106.880 244.080 C 106.616 244.344,106.411 244.839,106.425 245.180 C 106.441 245.560,106.591 245.452,106.812 244.900 L 107.174 244.000 159.107 244.000 C 200.088 244.000,211.158 244.105,211.601 244.500 C 212.078 244.925,212.082 244.896,211.632 244.300 C 210.955 243.406,107.770 243.190,106.880 244.080 M220.262 244.331 C 219.720 244.930,219.613 245.856,219.674 249.431 L 219.748 253.800 219.974 249.318 C 220.098 246.853,220.391 244.647,220.623 244.415 C 220.912 244.127,228.199 244.026,243.605 244.097 L 266.164 244.200 266.442 245.200 C 266.675 246.038,266.727 246.067,266.760 245.380 C 266.847 243.588,267.004 243.600,243.382 243.600 C 222.133 243.600,220.888 243.639,220.262 244.331 M285.061 243.900 C 284.959 244.065,289.288 244.149,294.680 244.086 C 301.666 244.005,304.645 244.105,305.042 244.435 C 305.383 244.718,305.600 244.740,305.600 244.492 C 305.600 243.615,285.595 243.039,285.061 243.900 M335.100 243.900 C 341.095 243.962,350.905 243.962,356.900 243.900 C 362.895 243.838,357.990 243.787,346.000 243.787 C 334.010 243.787,329.105 243.838,335.100 243.900 M32.080 249.020 C 32.026 252.021,32.154 253.594,32.480 253.920 C 32.847 254.287,40.545 254.377,65.180 254.304 L 97.400 254.207 65.000 254.004 L 32.600 253.800 32.380 249.200 L 32.160 244.600 32.080 249.020 M210.857 249.257 C 210.575 249.709,210.432 250.166,210.540 250.273 C 210.647 250.381,210.944 250.078,211.200 249.600 C 211.805 248.470,211.524 248.190,210.857 249.257 M286.432 250.824 C 286.414 251.166,286.680 251.796,287.022 252.224 C 287.634 252.988,287.638 252.987,287.276 252.200 C 287.074 251.760,286.808 251.130,286.686 250.800 C 286.493 250.282,286.459 250.285,286.432 250.824 M266.367 252.800 L 266.200 253.800 244.000 254.005 L 221.800 254.210 243.851 254.305 C 267.385 254.406,267.139 254.426,266.700 252.519 C 266.574 251.972,266.495 252.039,266.367 252.800 M106.412 253.020 C 106.372 254.395,106.541 254.400,157.636 254.400 L 207.911 254.400 208.856 253.568 L 209.800 252.736 208.811 253.368 C 207.206 254.394,107.430 254.327,106.832 253.300 C 106.608 252.915,106.419 252.789,106.412 253.020 M287.949 253.700 C 288.436 254.321,289.207 254.390,294.749 254.311 L 301.000 254.222 294.828 254.100 C 290.744 254.020,288.444 253.813,288.028 253.489 C 287.474 253.058,287.465 253.083,287.949 253.700 M335.300 254.300 C 341.405 254.362,351.395 254.362,357.500 254.300 C 363.605 254.238,358.610 254.187,346.400 254.187 C 334.190 254.187,329.195 254.238,335.300 254.300 M32.976 262.202 C 32.252 262.764,32.276 262.778,33.326 262.402 C 34.045 262.146,45.797 262.000,65.812 262.000 L 97.172 262.000 97.618 262.834 C 97.864 263.293,98.169 263.564,98.297 263.437 C 100.190 261.543,35.404 260.319,32.976 262.202 M106.770 262.298 C 106.318 262.895,106.322 262.926,106.799 262.500 C 107.241 262.106,117.238 262.000,153.924 262.000 L 200.488 262.000 200.324 263.400 C 200.230 264.202,200.310 264.650,200.512 264.448 C 200.705 264.255,200.803 263.581,200.731 262.949 L 200.600 261.800 153.950 261.698 C 109.880 261.602,107.271 261.635,106.770 262.298 M220.416 262.475 C 219.276 263.699,219.185 271.188,220.300 272.032 C 220.896 272.482,220.925 272.478,220.500 272.001 C 219.731 271.138,219.827 264.026,220.623 262.889 L 221.245 262.000 243.400 262.000 L 265.555 262.000 266.177 262.889 C 266.880 263.892,267.017 263.553,266.386 262.374 C 265.984 261.623,265.309 261.600,243.602 261.600 L 221.231 261.600 220.416 262.475 M291.981 262.284 C 291.518 262.895,291.521 262.927,291.999 262.500 C 292.328 262.207,293.654 262.000,295.200 262.000 C 296.763 262.000,298.056 262.204,298.370 262.500 C 298.798 262.904,298.865 262.884,298.718 262.400 C 298.423 261.430,292.704 261.331,291.981 262.284 M324.080 262.080 C 323.816 262.344,323.605 262.749,323.612 262.980 C 323.619 263.211,323.808 263.085,324.032 262.700 C 324.413 262.047,325.926 262.000,346.797 262.000 L 369.155 262.000 369.777 262.889 C 370.120 263.378,370.400 263.586,370.400 263.351 C 370.400 263.116,370.071 262.626,369.669 262.262 C 368.722 261.406,324.929 261.231,324.080 262.080 M106.081 268.038 C 105.955 273.363,101.614 272.821,143.434 272.700 L 179.400 272.596 143.349 272.498 C 114.352 272.419,107.214 272.298,106.866 271.880 C 106.629 271.594,106.374 269.839,106.299 267.980 L 106.163 264.600 106.081 268.038 M291.829 266.000 C 291.976 266.550,292.264 267.270,292.467 267.600 C 292.725 268.017,292.757 267.895,292.571 267.200 C 292.424 266.650,292.136 265.930,291.933 265.600 C 291.675 265.183,291.643 265.305,291.829 266.000 M32.137 268.600 C 32.139 270.360,32.209 271.030,32.293 270.089 C 32.378 269.149,32.377 267.709,32.291 266.889 C 32.205 266.070,32.136 266.840,32.137 268.600 M297.915 267.410 C 297.792 267.845,297.569 268.560,297.420 269.000 C 297.271 269.440,297.442 269.294,297.800 268.676 C 298.158 268.058,298.381 267.342,298.295 267.086 C 298.210 266.830,298.039 266.976,297.915 267.410 M97.798 271.293 L 97.400 272.200 65.400 272.404 L 33.400 272.607 65.238 272.704 C 99.587 272.808,99.013 272.840,98.339 270.816 C 98.260 270.580,98.017 270.795,97.798 271.293 M186.671 271.062 C 186.527 271.206,185.732 271.456,184.904 271.616 C 183.481 271.892,183.466 271.910,184.624 271.954 C 185.296 271.979,186.196 271.736,186.624 271.413 C 187.051 271.090,187.295 270.820,187.167 270.813 C 187.038 270.806,186.815 270.918,186.671 271.062 M294.176 271.770 C 294.604 272.117,295.324 272.385,295.776 272.366 C 296.437 272.338,296.389 272.267,295.531 272.009 C 294.944 271.831,294.224 271.563,293.931 271.413 C 293.639 271.263,293.749 271.424,294.176 271.770 M369.600 271.800 C 368.921 272.619,324.913 272.715,323.999 271.900 C 323.522 271.475,323.518 271.504,323.968 272.100 C 324.740 273.120,368.755 273.188,369.771 272.171 C 370.381 271.562,370.559 271.200,370.249 271.200 C 370.166 271.200,369.874 271.470,369.600 271.800 M180.900 272.276 C 181.285 272.376,181.915 272.376,182.300 272.276 C 182.685 272.175,182.370 272.093,181.600 272.093 C 180.830 272.093,180.515 272.175,180.900 272.276 M232.100 272.700 C 238.205 272.762,248.195 272.762,254.300 272.700 C 260.405 272.638,255.410 272.587,243.200 272.587 C 230.990 272.587,225.995 272.638,232.100 272.700 " stroke="none" fill="#747474" fill-rule="evenodd"></path><path id="path3" d="M220.600 134.689 C 218.942 135.097,218.800 135.535,218.800 140.249 C 218.800 147.142,215.392 146.402,247.100 146.387 C 275.949 146.374,276.118 146.361,274.890 144.396 C 274.621 143.964,274.400 142.855,274.400 141.932 C 274.400 141.008,274.049 139.521,273.621 138.626 C 273.192 137.732,272.657 136.505,272.431 135.900 C 272.092 134.993,271.790 134.807,270.710 134.840 C 269.513 134.876,269.486 134.904,270.394 135.156 C 270.941 135.309,271.604 135.876,271.867 136.417 C 273.122 138.991,273.935 141.579,274.061 143.400 L 274.200 145.400 247.600 145.600 C 216.290 145.835,219.600 146.470,219.600 140.233 C 219.600 136.154,219.623 136.050,220.700 135.246 C 221.305 134.795,221.710 134.441,221.600 134.459 C 221.490 134.478,221.040 134.581,220.600 134.689 M369.500 135.163 C 370.606 136.103,370.894 144.292,369.852 145.157 C 369.136 145.751,316.450 145.810,315.857 145.217 C 314.650 144.010,318.086 135.370,319.893 135.071 C 320.740 134.930,320.674 134.901,319.609 134.944 C 318.621 134.984,318.095 135.248,317.794 135.857 C 317.560 136.329,317.172 136.959,316.931 137.257 C 316.690 137.556,316.287 138.778,316.035 139.973 C 315.783 141.168,315.416 142.340,315.219 142.577 C 315.021 142.815,314.802 143.537,314.730 144.183 C 314.482 146.418,314.087 146.388,343.118 146.394 L 369.636 146.400 370.618 145.418 C 371.535 144.502,371.600 144.160,371.600 140.280 C 371.600 135.883,371.374 135.305,369.400 134.660 C 368.675 134.423,368.685 134.470,369.500 135.163 M31.867 135.067 C 31.136 135.798,31.589 145.566,32.374 145.986 C 33.990 146.851,97.354 146.527,98.440 145.648 C 99.690 144.636,100.126 137.462,99.037 135.801 L 98.382 134.800 66.691 134.895 L 35.000 134.990 66.600 135.201 C 83.980 135.317,98.245 135.454,98.300 135.506 C 98.676 135.859,98.326 144.714,97.920 145.120 C 96.969 146.071,32.927 145.784,32.414 144.826 C 32.186 144.401,32.000 142.263,32.000 140.075 C 32.000 135.858,32.172 135.429,34.000 135.093 C 34.770 134.951,34.670 134.896,33.567 134.854 C 32.778 134.825,32.013 134.920,31.867 135.067 M105.549 135.463 C 104.488 136.743,104.797 144.707,105.944 145.636 C 107.279 146.716,199.894 146.849,200.971 145.771 C 202.017 144.726,199.970 141.600,198.240 141.600 C 197.888 141.600,197.600 141.330,197.600 141.000 C 197.600 140.670,197.445 140.400,197.256 140.400 C 197.067 140.400,196.286 139.976,195.522 139.457 C 194.758 138.938,193.427 138.382,192.566 138.222 C 191.705 138.061,190.678 137.585,190.284 137.165 C 189.891 136.744,189.171 136.399,188.684 136.397 C 188.198 136.396,187.260 136.037,186.600 135.600 C 185.619 134.950,184.779 134.814,182.000 134.855 L 178.600 134.905 181.200 135.210 C 184.407 135.587,189.392 137.067,190.027 137.832 C 190.286 138.144,190.881 138.403,191.349 138.406 C 191.817 138.409,192.650 138.674,193.200 138.995 C 193.750 139.316,194.740 139.861,195.400 140.207 C 198.366 141.759,201.104 144.385,200.602 145.196 C 200.055 146.082,106.890 145.716,106.414 144.826 C 105.539 143.192,105.897 136.118,106.889 135.423 C 107.770 134.806,107.770 134.800,106.938 134.800 C 106.476 134.800,105.851 135.098,105.549 135.463 M126.300 135.100 C 135.815 135.160,151.385 135.160,160.900 135.100 C 170.415 135.040,162.630 134.991,143.600 134.991 C 124.570 134.991,116.785 135.040,126.300 135.100 M234.329 135.100 C 240.779 135.162,251.219 135.162,257.529 135.100 C 263.838 135.038,258.560 134.987,245.800 134.987 C 233.040 134.987,227.878 135.038,234.329 135.100 M333.129 135.100 C 339.579 135.162,350.019 135.162,356.329 135.100 C 362.638 135.038,357.360 134.987,344.600 134.987 C 331.840 134.987,326.678 135.038,333.129 135.100 M32.235 153.022 C 31.428 153.829,31.295 163.135,32.080 163.920 C 32.445 164.285,40.324 164.400,65.098 164.400 L 97.636 164.400 98.663 163.374 C 100.013 162.024,99.982 154.725,98.621 153.364 C 97.533 152.276,33.312 151.945,32.235 153.022 M106.892 152.668 C 104.942 153.452,104.402 161.638,106.182 163.418 L 107.164 164.400 159.133 164.400 C 205.005 164.400,211.161 164.329,211.604 163.796 C 212.364 162.880,212.181 159.040,211.285 157.094 C 210.856 156.162,210.287 154.835,210.022 154.144 C 209.670 153.228,209.209 152.822,208.320 152.644 C 206.855 152.351,107.621 152.374,106.892 152.668 M219.782 153.382 C 218.340 154.824,218.269 162.783,219.689 163.777 C 220.779 164.541,279.416 164.741,280.826 163.986 C 282.043 163.335,281.658 159.601,280.228 158.171 C 279.882 157.825,279.600 156.944,279.600 156.213 C 279.600 155.191,279.272 154.595,278.186 153.641 L 276.772 152.400 248.768 152.400 L 220.764 152.400 219.782 153.382 M312.526 152.803 C 311.452 153.235,310.976 154.101,310.617 156.269 C 310.465 157.186,310.084 158.036,309.770 158.156 C 309.457 158.276,309.192 158.696,309.182 159.087 C 309.173 159.479,308.904 160.520,308.585 161.400 C 307.433 164.580,305.575 164.400,339.590 164.400 L 369.492 164.400 370.580 163.544 C 372.134 162.322,372.040 154.445,370.456 153.164 C 369.425 152.330,314.548 151.988,312.526 152.803 M209.625 154.926 C 209.901 155.627,210.467 156.976,210.884 157.924 C 212.207 160.934,211.775 163.291,209.827 163.693 C 207.212 164.233,107.326 163.886,106.775 163.335 C 106.135 162.695,106.170 154.559,106.815 153.781 C 107.358 153.128,205.972 152.685,208.062 153.326 C 208.726 153.530,209.313 154.130,209.625 154.926 M277.819 154.110 C 278.313 154.604,278.934 155.817,279.198 156.804 C 279.462 157.792,279.865 158.828,280.094 159.107 C 280.897 160.086,281.145 162.748,280.484 163.296 C 279.472 164.136,221.821 164.237,220.545 163.401 C 219.248 162.551,219.104 155.539,220.350 153.954 L 221.101 153.000 249.010 153.105 L 276.920 153.211 277.819 154.110 M369.852 153.643 C 370.832 154.456,370.617 163.056,369.603 163.598 C 368.346 164.271,310.322 163.966,309.498 163.282 C 308.766 162.673,309.123 160.752,310.418 158.346 C 310.848 157.546,311.200 156.434,311.200 155.875 C 311.200 155.223,311.626 154.525,312.387 153.929 L 313.574 153.000 341.439 153.095 C 361.529 153.163,369.458 153.316,369.852 153.643 M97.986 153.974 C 98.708 155.323,98.514 162.607,97.739 163.251 C 96.699 164.114,32.938 164.064,32.392 163.200 C 31.878 162.388,31.896 154.941,32.414 153.974 C 33.064 152.759,97.336 152.759,97.986 153.974 M49.823 172.106 C 48.832 173.945,49.040 181.213,50.114 182.287 C 50.766 182.938,52.000 183.010,64.365 183.115 L 77.903 183.230 79.152 182.179 L 80.400 181.129 80.400 176.834 C 80.400 170.312,81.683 170.800,64.537 170.800 L 50.526 170.800 49.823 172.106 M125.144 171.564 C 123.630 172.789,123.477 180.148,124.931 181.837 L 125.931 183.000 139.801 183.000 L 153.671 183.000 154.435 182.056 C 155.865 180.290,155.423 172.163,153.840 171.106 C 152.699 170.344,126.128 170.768,125.144 171.564 M181.629 171.854 C 180.441 173.365,180.395 180.611,181.565 182.056 L 182.329 183.000 196.323 183.000 C 211.841 183.000,211.621 183.037,212.215 180.332 C 212.358 179.680,212.727 178.663,213.035 178.073 C 213.343 177.483,213.596 175.978,213.598 174.729 C 213.602 170.680,214.108 170.800,196.975 170.800 L 182.458 170.800 181.629 171.854 M238.175 172.048 C 237.091 174.144,237.490 181.421,238.744 182.436 C 240.183 183.600,286.686 183.631,287.738 182.469 C 288.641 181.471,288.572 179.900,287.600 179.293 C 287.031 178.938,286.800 178.360,286.800 177.294 C 286.800 174.934,286.166 173.307,284.740 172.004 L 283.422 170.800 261.121 170.800 L 238.821 170.800 238.175 172.048 M305.100 172.052 C 303.894 173.037,303.600 173.548,303.600 174.655 C 303.600 175.412,303.227 176.762,302.772 177.655 C 301.818 179.524,301.681 181.057,302.356 182.317 L 302.828 183.200 326.760 183.200 C 355.612 183.200,352.800 183.863,352.800 177.060 C 352.800 173.651,352.651 172.365,352.177 171.689 L 351.555 170.800 329.077 170.813 L 306.600 170.827 305.100 172.052 M78.614 172.246 C 80.550 173.514,79.913 181.901,77.871 182.030 C 73.403 182.310,50.902 181.855,50.522 181.477 C 49.306 180.266,49.863 172.396,51.200 171.890 C 52.823 171.276,77.625 171.598,78.614 172.246 M153.326 172.060 C 154.669 172.767,154.787 173.149,154.794 176.811 C 154.798 179.259,154.624 180.473,154.177 181.111 L 153.555 182.000 139.806 182.000 C 123.447 182.000,124.800 182.470,124.800 176.784 C 124.800 171.291,123.804 171.636,139.726 171.616 C 148.571 171.605,152.719 171.740,153.326 172.060 M212.179 172.547 L 213.358 173.490 212.458 177.230 C 211.191 182.491,212.822 182.000,196.631 182.000 C 180.172 182.000,181.600 182.481,181.600 176.943 C 181.600 171.161,180.321 171.600,197.189 171.602 L 211.000 171.604 212.179 172.547 M283.600 172.108 C 284.762 172.683,286.360 175.686,286.384 177.338 C 286.393 177.964,286.697 178.979,287.060 179.594 C 288.548 182.112,289.648 182.000,263.445 182.000 C 250.366 182.000,239.381 181.891,239.033 181.757 C 238.041 181.377,238.102 172.613,239.100 172.032 C 240.191 171.397,282.310 171.468,283.600 172.108 M351.511 172.223 C 352.666 173.032,352.872 180.270,351.771 181.371 C 351.214 181.929,348.413 182.000,326.979 182.000 L 302.815 182.000 302.564 180.997 C 302.411 180.390,302.547 179.635,302.908 179.085 C 303.235 178.585,303.730 177.161,304.008 175.920 C 305.046 171.284,303.234 171.600,328.800 171.600 C 347.903 171.600,350.733 171.678,351.511 172.223 M51.428 188.682 C 49.630 189.158,49.400 189.881,49.400 195.053 C 49.400 201.626,47.795 201.000,64.655 201.000 L 78.871 201.000 79.635 200.056 C 80.952 198.430,80.760 190.877,79.368 189.570 L 78.337 188.600 65.268 188.539 C 58.081 188.505,51.853 188.569,51.428 188.682 M126.600 188.740 C 124.220 189.514,124.207 189.551,124.327 195.331 C 124.396 198.654,124.469 198.930,125.569 200.031 L 126.738 201.200 162.507 201.200 C 197.768 201.200,198.286 201.189,199.000 200.400 C 199.398 199.960,199.896 199.600,200.107 199.600 C 200.317 199.600,201.414 198.580,202.545 197.333 C 203.675 196.086,205.095 194.550,205.700 193.919 C 206.976 192.589,207.218 190.076,206.171 189.029 C 205.518 188.375,128.581 188.096,126.600 188.740 M239.603 188.757 C 237.199 189.426,236.640 199.433,238.925 200.886 C 239.186 201.052,245.375 201.191,252.677 201.194 C 267.217 201.201,267.200 201.203,267.200 198.711 C 267.200 198.320,267.380 198.000,267.600 198.000 C 267.820 198.000,268.000 198.360,268.000 198.800 C 268.000 201.097,268.571 201.200,281.311 201.200 C 290.696 201.200,293.181 201.089,293.821 200.641 C 294.503 200.163,294.852 200.162,296.210 200.635 C 297.418 201.055,300.542 201.189,309.224 201.194 C 321.143 201.200,321.393 201.167,322.302 199.436 C 322.684 198.709,322.728 198.719,323.212 199.636 C 324.030 201.189,324.013 201.187,337.900 201.194 C 354.153 201.201,352.800 201.776,352.800 194.862 C 352.800 187.855,356.037 188.600,325.600 188.600 C 296.814 188.600,298.744 188.380,298.178 191.729 C 298.024 192.640,297.628 193.584,297.297 193.826 C 296.966 194.068,296.582 194.971,296.443 195.833 C 296.045 198.303,294.197 198.366,293.793 195.923 C 293.637 194.975,293.169 193.878,292.754 193.484 C 292.340 193.091,292.000 192.249,292.000 191.613 C 292.000 190.338,291.188 189.328,289.712 188.767 C 288.598 188.343,241.123 188.334,239.603 188.757 M78.869 190.262 C 80.052 191.333,79.942 198.450,78.725 199.584 C 77.533 200.695,52.447 200.869,50.889 199.777 C 49.849 199.049,49.512 191.048,50.480 190.080 C 51.321 189.239,77.927 189.410,78.869 190.262 M205.996 190.195 C 206.697 191.040,206.226 192.354,204.563 194.188 C 203.770 195.061,202.915 196.052,202.661 196.391 C 202.408 196.729,201.320 197.770,200.244 198.703 L 198.287 200.400 162.675 200.400 C 121.903 200.400,125.602 200.775,125.598 196.638 C 125.597 195.297,125.398 193.488,125.156 192.617 C 124.256 189.375,121.208 189.600,165.995 189.600 C 200.471 189.600,205.565 189.676,205.996 190.195 M290.711 190.223 C 291.233 190.588,291.600 191.265,291.600 191.861 C 291.600 192.419,291.932 193.354,292.338 193.938 C 293.460 195.550,293.997 198.153,293.439 199.273 L 292.977 200.200 281.988 200.312 C 269.296 200.442,269.347 200.449,268.557 198.558 C 267.851 196.870,267.221 196.955,266.592 198.824 L 266.129 200.200 253.002 200.306 C 237.114 200.433,238.400 200.916,238.400 194.818 C 238.400 192.040,238.567 190.393,238.880 190.080 C 239.696 189.264,289.538 189.401,290.711 190.223 M351.669 190.262 C 352.282 190.817,352.398 191.541,352.387 194.762 C 352.368 200.686,353.682 200.200,337.683 200.200 L 324.200 200.200 323.600 198.909 C 323.012 197.643,322.400 197.189,322.400 198.018 C 322.400 198.248,321.958 198.878,321.418 199.418 L 320.436 200.400 309.047 200.400 C 295.461 200.400,295.881 200.537,296.833 196.406 C 297.060 195.419,297.483 194.339,297.772 194.006 C 298.062 193.673,298.419 192.730,298.565 191.911 C 298.712 191.092,299.140 190.242,299.516 190.023 C 300.843 189.249,350.802 189.478,351.669 190.262 M50.654 207.229 C 49.621 208.041,49.600 208.154,49.600 212.800 C 49.600 219.697,48.564 219.310,66.536 219.126 L 78.872 219.000 79.636 218.056 C 80.283 217.256,80.400 216.448,80.400 212.791 L 80.400 208.471 79.169 207.436 L 77.939 206.400 64.823 206.400 C 52.160 206.400,51.672 206.429,50.654 207.229 M125.501 207.103 C 123.723 208.205,123.298 216.669,124.938 218.309 C 125.794 219.166,203.258 219.630,206.127 218.796 C 209.174 217.910,206.551 213.279,199.957 207.900 L 198.118 206.400 162.359 206.411 C 129.381 206.420,126.515 206.474,125.501 207.103 M238.562 207.241 C 237.634 208.266,237.243 214.831,237.967 217.246 C 238.557 219.215,239.186 219.288,254.333 219.126 C 268.397 218.975,267.200 219.562,267.200 212.813 C 267.200 205.775,268.618 206.400,252.639 206.400 C 239.615 206.400,239.307 206.418,238.562 207.241 M272.229 207.029 C 271.322 207.935,271.398 210.894,272.350 211.755 C 272.837 212.196,273.193 213.250,273.364 214.760 C 273.563 216.524,273.873 217.317,274.645 218.043 L 275.664 219.000 294.132 219.119 C 316.871 219.265,316.367 219.345,317.024 215.461 C 317.177 214.555,317.552 213.631,317.857 213.407 C 319.055 212.529,319.475 207.990,318.436 207.149 C 317.124 206.087,273.284 205.973,272.229 207.029 M323.829 207.029 C 323.105 207.752,322.906 217.316,323.592 218.400 C 324.257 219.451,351.458 219.283,352.232 218.224 C 353.295 216.770,353.020 208.346,351.874 207.270 C 350.634 206.104,324.973 205.884,323.829 207.029 M78.840 208.236 C 79.996 209.283,79.966 216.434,78.800 217.600 C 77.531 218.869,52.124 218.842,50.973 217.571 C 49.456 215.894,49.807 208.619,51.444 207.803 C 52.996 207.030,77.942 207.424,78.840 208.236 M163.534 207.600 L 198.603 207.600 200.402 209.078 C 203.955 211.998,206.436 215.240,206.312 216.800 L 206.200 218.200 166.302 218.302 C 119.527 218.421,124.800 219.113,124.800 212.862 C 124.800 208.452,125.781 206.752,127.933 207.432 C 128.226 207.524,144.246 207.600,163.534 207.600 M266.557 208.233 C 266.964 209.294,266.827 216.801,266.386 217.626 C 265.876 218.579,239.817 218.857,238.880 217.920 C 238.376 217.416,238.181 209.437,238.643 208.233 C 239.012 207.271,266.188 207.271,266.557 208.233 M318.330 209.156 C 318.409 209.992,318.064 211.391,317.430 212.806 C 316.863 214.068,316.400 215.338,316.400 215.628 C 316.400 215.919,315.916 216.661,315.325 217.278 L 314.250 218.400 295.161 218.400 L 276.071 218.400 275.073 217.214 C 274.524 216.562,273.946 215.265,273.789 214.332 C 273.631 213.400,273.145 211.952,272.709 211.115 C 272.203 210.144,272.006 209.230,272.166 208.593 L 272.417 207.593 295.308 207.697 L 318.200 207.800 318.330 209.156 M351.843 208.300 C 352.642 209.352,352.592 216.348,351.777 217.511 C 351.038 218.567,325.110 218.950,324.080 217.920 C 323.566 217.406,323.374 208.360,323.867 207.867 C 324.567 207.167,351.297 207.581,351.843 208.300 M50.800 225.717 C 49.655 226.295,49.022 235.021,50.036 236.243 C 50.779 237.139,78.883 237.059,79.784 236.159 C 80.312 235.630,80.405 234.704,80.312 230.870 C 80.164 224.726,81.478 225.212,65.000 225.212 C 55.163 225.212,51.545 225.340,50.800 225.717 M125.322 225.604 C 123.819 226.210,123.415 235.530,124.852 236.441 C 125.990 237.161,154.239 236.876,154.851 236.139 C 155.802 234.992,155.616 226.493,154.624 225.768 C 153.725 225.111,126.918 224.961,125.322 225.604 M182.400 225.717 C 181.082 226.383,180.618 235.418,181.849 236.441 C 182.636 237.095,209.382 237.492,212.200 236.893 L 213.800 236.552 213.736 232.509 C 213.673 228.479,213.097 226.753,211.400 225.506 C 210.655 224.959,183.510 225.156,182.400 225.717 M238.400 226.000 C 237.502 226.898,237.215 233.736,237.990 235.774 L 238.380 236.800 252.547 236.800 C 265.097 236.800,266.742 236.728,266.957 236.167 C 267.523 234.693,267.216 226.473,266.571 225.829 C 265.482 224.739,239.503 224.897,238.400 226.000 M278.500 225.688 C 277.446 226.196,277.337 227.405,278.198 229.054 C 278.526 229.684,278.796 230.693,278.798 231.297 C 278.799 231.958,279.117 232.591,279.600 232.893 C 280.040 233.168,280.400 233.811,280.400 234.323 C 280.400 236.866,280.119 236.809,292.314 236.707 L 303.400 236.613 292.546 236.500 L 281.692 236.387 281.210 235.094 C 280.944 234.382,280.396 233.080,279.990 232.200 C 276.845 225.371,276.310 225.600,295.400 225.600 C 311.728 225.600,313.330 225.759,312.137 227.257 C 311.899 227.556,311.581 228.520,311.431 229.400 C 311.280 230.280,310.691 232.208,310.122 233.684 C 308.983 236.635,309.454 236.358,304.600 236.937 C 303.940 237.016,304.300 237.089,305.400 237.100 C 309.253 237.139,311.000 235.448,311.617 231.080 C 311.801 229.780,312.232 228.407,312.575 228.027 C 313.497 227.009,313.336 226.032,312.174 225.590 C 310.710 225.034,279.670 225.124,278.500 225.688 M323.637 225.756 C 323.327 226.129,323.212 228.004,323.288 231.456 L 323.400 236.600 337.553 236.705 C 347.665 236.780,351.862 236.681,352.253 236.356 C 353.414 235.392,352.999 226.056,351.774 225.590 C 350.035 224.929,324.197 225.081,323.637 225.756 M78.711 226.223 C 79.868 227.033,80.077 234.666,78.971 235.771 C 78.126 236.617,52.202 236.728,51.057 235.891 C 49.500 234.752,49.713 226.856,51.322 226.078 C 52.871 225.330,77.622 225.460,78.711 226.223 M153.774 225.990 C 154.897 226.417,155.366 233.796,154.386 235.626 C 153.924 236.490,126.930 236.849,125.600 236.009 C 124.455 235.286,124.501 227.055,125.655 226.247 C 126.735 225.490,151.856 225.261,153.774 225.990 M212.042 227.400 C 213.668 229.825,213.913 236.006,212.400 236.436 C 211.186 236.781,184.564 236.887,183.313 236.551 C 182.123 236.232,181.925 235.415,181.934 230.876 C 181.945 225.167,180.757 225.567,197.336 225.695 L 210.970 225.800 212.042 227.400 M266.320 226.080 C 266.980 226.740,266.980 235.260,266.320 235.920 C 265.966 236.274,262.364 236.400,252.600 236.400 C 242.836 236.400,239.234 236.274,238.880 235.920 C 238.042 235.082,238.232 226.537,239.100 226.032 C 240.162 225.414,265.699 225.459,266.320 226.080 M351.511 226.223 C 352.327 226.794,352.400 227.168,352.400 230.778 C 352.400 236.918,353.694 236.441,337.400 236.310 L 323.800 236.200 323.687 231.457 C 323.612 228.302,323.729 226.527,324.036 226.157 C 324.763 225.280,350.253 225.342,351.511 226.223 M32.080 243.680 C 31.416 244.344,31.416 253.656,32.080 254.320 C 33.020 255.260,97.283 254.985,98.456 254.035 C 99.764 252.976,99.901 245.438,98.638 244.042 L 97.876 243.200 65.218 243.200 C 40.351 243.200,32.445 243.315,32.080 243.680 M106.560 243.506 C 104.945 244.584,104.540 252.341,106.016 253.925 L 106.831 254.800 157.316 254.795 C 185.082 254.792,208.204 254.681,208.698 254.549 C 210.666 254.021,213.469 245.126,212.099 243.757 C 211.489 243.146,107.469 242.899,106.560 243.506 M219.689 243.823 C 218.859 244.404,218.800 244.747,218.800 249.000 C 218.800 253.253,218.859 253.596,219.689 254.177 C 220.861 254.998,265.905 255.135,266.720 254.320 C 267.040 254.000,267.200 252.231,267.200 249.000 C 267.200 245.769,267.040 244.000,266.720 243.680 C 265.905 242.865,220.861 243.002,219.689 243.823 M284.414 243.974 C 283.779 245.160,283.918 246.318,284.800 247.200 C 285.240 247.640,285.600 248.460,285.600 249.023 C 285.600 254.224,286.558 254.800,295.214 254.800 L 302.250 254.800 303.325 253.678 C 304.035 252.938,304.384 252.156,304.354 251.378 C 304.321 250.544,304.249 250.430,304.107 250.987 C 303.998 251.420,303.457 252.365,302.906 253.087 L 301.905 254.400 295.158 254.400 L 288.411 254.400 287.434 252.900 C 286.897 252.075,286.332 250.536,286.180 249.480 C 286.028 248.424,285.643 247.301,285.326 246.983 C 284.992 246.649,284.802 245.858,284.874 245.103 L 285.000 243.800 294.400 243.687 C 305.868 243.550,305.604 243.502,305.587 245.708 C 305.580 246.638,305.310 247.749,304.987 248.176 C 304.039 249.431,304.293 250.244,305.252 249.024 C 306.282 247.716,306.720 244.667,306.003 243.803 C 305.135 242.758,284.979 242.917,284.414 243.974 M323.467 243.467 C 322.838 244.095,323.175 254.305,323.833 254.557 C 325.895 255.349,370.007 254.793,370.834 253.966 C 372.030 252.770,371.862 244.672,370.624 243.767 C 369.801 243.166,324.059 242.875,323.467 243.467 M97.626 244.014 C 98.322 244.386,98.400 244.889,98.400 249.000 C 98.400 253.111,98.322 253.614,97.626 253.986 C 96.442 254.620,33.115 254.555,32.480 253.920 C 31.877 253.317,31.823 245.478,32.414 244.374 C 32.895 243.475,95.969 243.127,97.626 244.014 M211.446 244.074 C 212.518 245.809,210.335 252.965,208.421 253.989 C 207.076 254.709,107.418 254.545,106.818 253.822 C 106.512 253.453,106.338 251.712,106.338 249.000 C 106.338 246.288,106.512 244.547,106.818 244.178 C 107.466 243.398,210.964 243.295,211.446 244.074 M266.320 244.080 C 266.636 244.396,266.800 246.080,266.800 249.000 C 266.800 251.920,266.636 253.604,266.320 253.920 C 265.584 254.656,221.274 254.582,220.300 253.843 C 219.296 253.081,219.266 245.432,220.262 244.331 C 221.093 243.413,265.411 243.171,266.320 244.080 M369.920 244.080 C 370.236 244.396,370.400 246.080,370.400 249.000 C 370.400 251.920,370.236 253.604,369.920 253.920 C 369.411 254.429,325.534 254.656,324.233 254.157 C 323.424 253.847,323.288 244.872,324.080 244.080 C 324.773 243.387,369.227 243.387,369.920 244.080 M33.600 261.083 C 31.852 261.387,31.600 262.186,31.600 267.414 C 31.600 274.390,27.298 273.600,65.296 273.600 L 97.529 273.600 98.564 272.369 C 100.669 269.868,99.831 262.124,97.355 261.183 C 96.372 260.809,35.722 260.714,33.600 261.083 M106.808 261.314 C 104.480 262.492,103.824 269.979,105.839 272.373 L 106.878 273.608 143.539 273.461 C 182.005 273.306,185.604 273.148,188.108 271.500 C 188.693 271.115,189.569 270.800,190.054 270.800 C 191.150 270.800,195.262 268.785,197.400 267.201 C 198.280 266.548,199.568 265.716,200.263 265.351 C 201.898 264.491,202.333 262.544,201.123 261.500 C 200.066 260.588,108.599 260.407,106.808 261.314 M220.600 261.256 C 219.002 262.141,218.800 262.819,218.800 267.296 C 218.800 271.478,218.839 271.674,219.858 272.619 L 220.917 273.600 243.436 273.600 L 265.955 273.600 266.577 272.711 C 267.432 271.491,267.475 262.929,266.632 261.776 C 265.953 260.847,222.231 260.353,220.600 261.256 M291.700 261.288 C 290.359 261.935,290.799 268.007,292.226 268.555 C 292.545 268.677,292.800 269.299,292.800 269.955 C 292.800 273.285,296.604 274.431,297.381 271.335 C 297.523 270.768,297.881 270.062,298.176 269.767 C 298.731 269.211,299.600 265.042,299.600 262.931 C 299.600 260.992,294.510 259.933,291.700 261.288 M324.089 261.423 C 323.251 262.010,323.200 262.332,323.200 267.049 C 323.200 274.446,320.154 273.600,346.779 273.600 L 369.529 273.600 370.564 272.369 C 372.529 270.034,371.887 262.424,369.622 261.212 C 368.225 260.464,325.173 260.663,324.089 261.423 M97.669 262.262 C 98.762 263.252,98.756 271.154,97.661 272.145 C 96.592 273.113,33.005 272.971,32.391 272.000 C 31.600 270.748,31.918 263.282,32.800 262.400 C 33.939 261.261,96.415 261.128,97.669 262.262 M200.724 263.077 C 200.829 264.168,200.659 264.452,199.562 265.020 C 198.855 265.385,197.539 266.221,196.638 266.878 C 194.742 268.260,190.652 270.193,188.735 270.614 C 188.007 270.774,187.049 271.130,186.606 271.405 C 184.096 272.961,108.409 273.656,106.731 272.138 C 105.734 271.235,105.652 263.875,106.624 262.487 L 107.248 261.597 153.924 261.698 L 200.600 261.800 200.724 263.077 M266.386 262.374 C 266.904 263.341,266.922 271.187,266.409 272.000 C 265.823 272.926,221.945 273.118,220.545 272.201 C 219.195 271.316,219.097 263.891,220.416 262.475 L 221.231 261.600 243.602 261.600 C 265.309 261.600,265.984 261.623,266.386 262.374 M298.834 262.884 C 299.398 265.003,296.912 272.406,295.640 272.394 C 294.123 272.379,293.690 271.612,291.740 265.483 C 290.738 262.335,291.530 261.532,295.492 261.684 C 298.433 261.796,298.555 261.840,298.834 262.884 M369.669 262.262 C 370.678 263.176,370.761 271.181,369.771 272.171 C 368.945 272.998,324.901 273.141,324.080 272.320 C 323.762 272.002,323.600 270.276,323.600 267.200 C 323.600 264.124,323.762 262.398,324.080 262.080 C 324.929 261.231,368.722 261.406,369.669 262.262 " stroke="none" fill="#505050" fill-rule="evenodd"></path><path id="path4" d="M33.100 135.476 C 31.985 135.767,32.052 144.586,33.174 145.186 C 34.651 145.976,96.988 145.737,97.651 144.939 C 98.417 144.016,98.417 136.784,97.651 135.861 C 97.125 135.227,35.460 134.859,33.100 135.476 M106.900 135.457 C 106.215 135.744,106.197 144.437,106.880 145.120 C 107.499 145.739,199.059 145.812,200.000 145.194 C 200.413 144.922,200.463 144.707,200.160 144.500 C 199.918 144.335,199.506 143.795,199.246 143.300 C 198.985 142.805,198.582 142.400,198.349 142.400 C 198.117 142.400,197.448 142.030,196.863 141.579 C 194.618 139.845,192.729 138.800,191.836 138.800 C 191.326 138.800,190.479 138.463,189.954 138.051 C 189.429 137.639,187.560 136.874,185.800 136.351 L 182.600 135.400 145.000 135.324 C 124.320 135.282,107.175 135.342,106.900 135.457 M220.700 135.632 C 219.717 136.205,219.657 144.000,220.629 144.971 C 221.564 145.907,272.827 145.931,273.603 144.996 C 274.581 143.818,272.098 135.828,270.632 135.434 C 269.065 135.014,221.438 135.202,220.700 135.632 M319.083 135.700 C 317.439 136.928,315.337 144.535,316.448 145.238 C 317.599 145.967,369.037 145.679,369.651 144.940 C 370.535 143.876,370.658 136.715,369.807 135.864 C 368.931 134.988,320.248 134.831,319.083 135.700 M97.357 136.233 C 97.673 137.055,97.673 143.345,97.357 144.167 C 97.109 144.814,35.087 145.192,33.433 144.557 C 32.438 144.176,32.501 136.137,33.500 135.876 C 35.774 135.281,97.124 135.624,97.357 136.233 M183.509 136.650 C 186.083 137.227,188.819 138.037,189.588 138.450 C 190.358 138.862,191.240 139.200,191.547 139.200 C 191.854 139.200,192.757 139.590,193.553 140.066 C 202.286 145.290,206.476 144.800,153.047 144.800 L 107.293 144.800 107.052 143.900 C 106.740 142.735,106.740 137.665,107.052 136.500 L 107.293 135.600 143.061 135.600 L 178.829 135.600 183.509 136.650 M270.800 136.400 C 271.240 136.840,271.600 137.475,271.600 137.812 C 271.600 138.149,272.040 139.471,272.579 140.750 C 273.132 142.064,273.460 143.450,273.332 143.938 L 273.107 144.800 247.143 144.800 L 221.180 144.800 220.753 143.700 C 220.302 142.541,220.451 136.889,220.953 136.076 C 221.550 135.110,269.824 135.424,270.800 136.400 M369.518 139.400 C 369.582 141.380,369.534 143.406,369.409 143.903 L 369.183 144.806 343.092 144.703 L 317.000 144.600 317.078 142.800 C 317.176 140.558,318.900 136.327,319.874 135.941 C 320.273 135.783,331.580 135.686,345.000 135.727 L 369.400 135.800 369.518 139.400 M33.626 153.552 C 32.315 153.918,32.074 155.068,32.360 159.603 L 32.600 163.400 64.849 163.502 C 101.817 163.620,98.100 164.078,98.337 159.378 C 98.545 155.254,97.981 153.768,96.085 153.454 C 94.057 153.119,34.845 153.211,33.626 153.552 M108.400 153.483 C 106.516 153.810,105.426 160.233,106.814 162.826 C 107.327 163.785,210.165 164.075,211.120 163.120 C 211.763 162.477,211.724 160.447,211.045 159.145 C 210.742 158.565,210.193 157.184,209.825 156.077 C 209.286 154.452,208.918 153.980,207.919 153.632 C 206.715 153.212,110.783 153.069,108.400 153.483 M220.800 153.591 C 220.003 154.094,219.673 162.124,220.412 163.015 C 221.068 163.804,279.533 163.907,280.320 163.120 C 280.962 162.478,280.927 161.160,280.244 160.184 C 279.938 159.747,279.401 158.425,279.051 157.248 C 278.701 156.070,277.952 154.677,277.387 154.153 L 276.359 153.200 248.879 153.206 C 232.292 153.210,221.162 153.362,220.800 153.591 M312.369 154.369 C 311.623 155.115,311.200 155.952,311.200 156.680 C 311.200 157.308,310.907 158.240,310.549 158.752 C 309.630 160.064,309.146 162.453,309.672 163.086 C 310.012 163.496,316.111 163.600,339.835 163.600 L 369.572 163.600 370.023 162.757 C 370.653 161.580,370.366 154.721,369.651 153.861 C 369.150 153.258,366.659 153.200,341.320 153.200 L 313.538 153.200 312.369 154.369 M97.209 154.800 C 98.155 156.298,97.672 162.392,96.574 162.810 C 95.438 163.242,36.161 163.372,34.037 162.947 L 32.773 162.695 32.887 158.665 C 32.997 154.750,33.029 154.626,34.000 154.351 C 36.213 153.724,96.801 154.154,97.209 154.800 M207.987 154.593 C 208.751 154.988,209.227 155.622,209.416 156.493 C 209.571 157.212,210.036 158.468,210.449 159.284 C 211.602 161.563,211.455 162.649,209.950 162.950 C 208.308 163.278,110.079 163.276,108.437 162.947 L 107.173 162.695 107.287 158.665 C 107.397 154.748,107.428 154.627,108.400 154.357 C 110.652 153.733,206.763 153.960,207.987 154.593 M277.318 155.114 C 277.905 155.727,278.505 156.852,278.650 157.614 C 278.795 158.377,279.159 159.486,279.457 160.080 C 280.260 161.677,280.136 162.670,279.100 162.948 C 277.280 163.436,221.266 163.230,220.959 162.734 C 220.399 161.827,220.282 156.450,220.796 155.209 L 221.297 154.000 248.774 154.000 L 276.250 154.000 277.318 155.114 M369.410 154.900 C 369.534 155.395,369.582 157.420,369.518 159.400 L 369.400 163.000 341.400 163.116 C 306.883 163.260,308.819 163.482,310.800 159.600 C 311.240 158.738,311.600 157.582,311.600 157.032 C 311.600 156.456,312.065 155.601,312.696 155.016 L 313.792 154.000 341.488 154.000 L 369.185 154.000 369.410 154.900 M51.200 172.292 C 49.788 172.829,49.347 180.159,50.661 181.251 C 51.725 182.135,76.911 182.281,78.239 181.411 C 79.578 180.534,79.733 173.114,78.426 172.414 C 77.613 171.979,52.321 171.865,51.200 172.292 M126.086 172.410 C 124.627 173.008,124.894 180.723,126.400 181.483 C 127.830 182.205,151.770 182.205,153.200 181.483 C 154.286 180.935,154.919 174.201,154.016 172.800 C 153.560 172.092,127.741 171.731,126.086 172.410 M182.489 172.623 C 181.309 173.449,181.129 180.311,182.262 181.251 C 182.960 181.830,210.427 182.107,210.994 181.540 C 212.198 180.334,212.707 172.993,211.626 172.414 C 210.244 171.675,183.570 171.866,182.489 172.623 M239.100 172.432 C 238.310 172.892,238.058 180.040,238.791 181.200 C 239.341 182.069,285.903 182.110,286.949 181.243 C 287.552 180.742,287.558 180.617,287.010 180.011 C 286.675 179.640,286.400 178.953,286.400 178.484 C 286.400 177.011,284.784 173.234,283.884 172.603 C 282.830 171.866,240.352 171.703,239.100 172.432 M305.872 172.578 C 305.471 172.881,304.776 174.360,304.326 175.865 C 303.877 177.369,303.273 179.061,302.984 179.624 C 301.830 181.871,301.036 181.800,327.200 181.800 C 348.124 181.800,351.278 181.722,351.609 181.200 C 352.394 179.957,352.086 172.874,351.226 172.414 C 349.936 171.724,306.793 171.879,305.872 172.578 M78.316 176.767 C 78.400 179.510,78.292 180.622,77.916 180.860 C 77.325 181.235,52.394 181.326,51.433 180.957 C 50.774 180.705,50.453 173.680,51.072 173.061 C 51.221 172.912,57.386 172.837,64.772 172.895 L 78.200 173.000 78.316 176.767 M153.514 176.850 C 153.624 180.566,153.596 180.708,152.714 180.944 C 151.524 181.263,127.460 181.275,126.633 180.957 C 125.974 180.705,125.653 173.680,126.272 173.061 C 126.421 172.912,132.586 172.837,139.972 172.895 L 153.400 173.000 153.514 176.850 M211.301 176.776 C 211.235 179.268,211.031 180.660,210.701 180.870 C 210.122 181.237,184.650 181.310,183.300 180.948 C 182.398 180.706,181.854 173.879,182.672 173.062 C 182.821 172.912,189.346 172.837,197.172 172.895 L 211.400 173.000 211.301 176.776 M284.415 174.200 C 284.551 174.860,284.857 175.760,285.094 176.200 C 285.764 177.443,286.464 180.373,286.195 180.808 C 285.878 181.321,240.427 181.331,239.616 180.818 C 239.071 180.473,238.633 173.992,239.095 173.097 C 239.181 172.930,249.357 172.840,261.709 172.897 L 284.167 173.000 284.415 174.200 M351.514 176.850 C 351.657 181.687,354.423 181.189,327.400 181.189 C 302.214 181.189,303.033 181.249,303.771 179.460 C 304.056 178.767,304.605 177.210,304.990 176.000 C 305.375 174.790,305.873 173.574,306.097 173.297 C 306.417 172.901,311.296 172.815,328.952 172.897 L 351.400 173.000 351.514 176.850 M165.520 189.996 C 139.974 190.128,125.911 190.341,125.675 190.600 C 124.977 191.364,125.611 198.261,126.463 199.176 C 127.570 200.364,197.263 200.489,199.114 199.306 C 200.872 198.183,206.423 192.057,206.387 191.279 C 206.370 190.893,205.347 189.578,205.156 189.696 C 205.070 189.749,187.234 189.884,165.520 189.996 M50.480 190.480 C 49.769 191.191,49.839 198.027,50.567 199.024 C 51.362 200.111,76.637 200.461,78.246 199.407 C 79.579 198.533,79.728 191.111,78.426 190.414 C 77.262 189.791,51.108 189.852,50.480 190.480 M238.880 190.480 C 238.572 190.788,238.400 192.359,238.400 194.857 C 238.400 200.370,237.384 200.000,252.515 200.000 C 265.662 200.000,266.062 199.944,266.737 198.008 C 267.276 196.462,267.927 196.470,268.470 198.029 C 269.115 199.878,269.940 200.000,281.812 200.000 C 292.373 200.000,292.787 199.971,293.201 199.198 C 293.670 198.321,293.099 195.670,292.126 194.211 C 291.837 193.777,291.600 193.012,291.600 192.511 C 291.600 189.899,292.685 190.000,264.680 190.000 C 245.520 190.000,239.243 190.117,238.880 190.480 M299.280 190.480 C 299.016 190.744,298.799 191.419,298.797 191.980 C 298.796 192.541,298.441 193.537,298.008 194.194 C 296.984 195.746,296.542 198.608,297.203 199.404 C 297.778 200.097,318.749 200.304,320.511 199.634 C 321.041 199.432,321.705 198.712,321.986 198.034 C 322.557 196.655,323.200 196.402,323.200 197.556 C 323.200 200.024,323.332 200.045,337.915 199.917 C 349.228 199.818,351.287 199.710,351.609 199.200 C 352.174 198.305,352.100 191.060,351.520 190.480 C 350.826 189.786,299.974 189.786,299.280 190.480 M77.767 190.643 C 78.568 190.950,78.700 197.940,77.920 198.720 C 77.293 199.347,52.736 199.408,51.574 198.786 C 50.460 198.190,50.394 190.965,51.500 190.676 C 52.568 190.397,77.045 190.366,77.767 190.643 M205.589 191.100 C 205.583 191.485,204.857 192.610,203.976 193.600 C 203.094 194.590,201.884 195.987,201.287 196.705 C 199.073 199.363,201.597 199.200,162.669 199.200 C 134.851 199.200,127.213 199.093,126.900 198.700 C 126.304 197.951,125.997 190.876,126.551 190.648 C 128.152 189.989,205.600 190.432,205.589 191.100 M289.840 190.636 C 290.417 190.791,290.812 191.383,291.106 192.531 C 291.340 193.449,291.849 195.022,292.237 196.027 C 293.503 199.312,293.878 199.200,281.639 199.200 C 269.981 199.200,269.043 199.065,268.667 197.331 C 268.096 194.697,267.093 194.626,266.408 197.171 C 266.122 198.231,265.715 198.783,265.097 198.949 C 263.953 199.255,241.286 199.266,240.147 198.960 C 238.998 198.652,238.467 191.749,239.528 190.900 C 240.173 190.384,287.966 190.133,289.840 190.636 M350.700 190.652 C 351.552 190.881,351.600 191.092,351.600 194.657 C 351.600 199.538,352.598 199.237,336.873 199.106 L 324.227 199.000 323.690 197.100 C 323.016 194.714,321.600 195.208,321.600 197.829 C 321.600 198.971,319.498 199.200,309.074 199.194 C 296.464 199.187,296.135 199.043,298.427 194.547 C 298.852 193.713,299.200 192.628,299.200 192.135 C 299.200 191.643,299.515 191.056,299.900 190.832 C 300.658 190.391,349.085 190.219,350.700 190.652 M51.300 208.270 C 50.001 209.176,49.939 215.754,51.216 217.125 C 52.386 218.381,77.412 218.513,78.538 217.269 C 79.665 216.023,79.490 209.048,78.311 208.223 C 76.977 207.288,52.646 207.331,51.300 208.270 M126.089 208.223 C 124.855 209.087,124.731 216.252,125.931 217.338 C 126.602 217.945,129.980 218.000,166.324 218.000 L 205.985 218.000 206.236 216.999 C 206.525 215.848,203.729 212.260,200.224 209.284 L 198.240 207.600 162.609 207.600 C 131.008 207.600,126.877 207.670,126.089 208.223 M239.289 208.223 C 238.472 208.795,238.400 209.167,238.400 212.794 C 238.400 218.457,237.131 218.000,252.838 218.000 L 266.020 218.000 266.447 216.900 C 267.163 215.054,266.700 208.808,265.798 208.149 C 264.615 207.284,240.534 207.351,239.289 208.223 M272.880 208.080 C 272.243 208.717,272.271 210.035,272.943 211.011 C 273.242 211.445,273.709 212.743,273.982 213.895 C 274.254 215.048,274.833 216.443,275.268 216.995 L 276.058 218.000 295.193 218.000 L 314.329 218.000 315.364 216.769 C 315.934 216.092,316.401 215.237,316.402 214.869 C 316.404 214.501,316.668 213.696,316.989 213.080 C 318.172 210.811,318.437 209.104,317.728 208.320 C 316.906 207.412,273.779 207.181,272.880 208.080 M324.080 208.080 C 323.478 208.682,323.424 216.124,324.014 217.226 C 324.592 218.307,350.300 218.443,351.371 217.371 C 352.472 216.270,352.266 209.032,351.111 208.223 C 349.948 207.408,324.885 207.275,324.080 208.080 M78.316 212.340 C 78.479 217.628,79.652 217.200,64.980 217.200 C 50.066 217.200,51.020 217.520,51.278 212.610 C 51.521 207.979,50.190 208.374,65.127 208.495 L 78.200 208.600 78.316 212.340 M202.228 212.198 C 204.703 214.704,205.898 216.200,205.746 216.598 C 205.436 217.404,127.285 217.525,126.480 216.720 C 125.832 216.072,125.832 209.528,126.480 208.880 C 126.846 208.514,135.440 208.400,162.720 208.400 L 198.480 208.400 202.228 212.198 M265.818 208.829 C 266.542 210.001,266.335 216.407,265.559 216.822 C 264.293 217.499,239.660 217.145,239.227 216.444 C 238.911 215.932,239.061 210.053,239.420 208.900 C 239.626 208.236,265.409 208.167,265.818 208.829 M317.599 209.300 C 317.597 210.608,315.303 216.033,314.492 216.649 C 313.944 217.065,309.911 217.177,295.129 217.187 L 276.458 217.200 275.620 216.135 C 275.160 215.549,274.687 214.604,274.571 214.035 C 274.454 213.466,274.008 212.097,273.579 210.992 C 273.151 209.888,272.800 208.853,272.800 208.692 C 272.800 208.532,282.880 208.400,295.200 208.400 L 317.600 208.400 317.599 209.300 M350.971 209.029 C 352.166 210.223,351.854 216.323,350.574 216.810 C 348.666 217.535,324.529 217.313,324.243 216.567 C 323.913 215.708,323.933 209.000,324.267 208.667 C 324.904 208.029,350.316 208.373,350.971 209.029 M51.209 226.386 C 49.710 227.334,50.218 235.206,51.825 235.939 C 53.533 236.717,77.175 236.573,78.311 235.777 C 79.586 234.885,79.682 227.086,78.426 226.414 C 77.438 225.885,52.042 225.859,51.209 226.386 M125.900 226.432 C 124.660 227.154,124.877 234.970,126.161 235.811 C 127.407 236.627,153.221 236.541,154.043 235.718 C 154.701 235.059,154.559 226.749,153.882 226.319 C 153.138 225.845,126.724 225.952,125.900 226.432 M182.880 226.480 C 182.563 226.797,182.400 228.496,182.400 231.472 C 182.400 237.019,180.499 236.452,198.600 236.312 L 213.000 236.200 212.972 232.800 C 212.950 230.058,212.768 229.071,212.032 227.700 L 211.119 226.000 197.240 226.000 C 186.978 226.000,183.235 226.125,182.880 226.480 M238.880 226.480 C 238.166 227.194,238.236 234.423,238.967 235.424 C 239.735 236.475,264.411 236.865,265.802 235.848 C 266.636 235.239,267.017 228.415,266.313 226.700 C 265.948 225.813,239.757 225.603,238.880 226.480 M279.300 226.265 C 278.420 226.620,278.854 229.458,280.176 232.000 C 280.463 232.550,280.911 233.666,281.173 234.479 C 281.801 236.433,282.075 236.465,296.933 236.318 L 308.866 236.200 309.972 233.200 C 311.576 228.850,312.048 226.679,311.470 226.311 C 310.954 225.983,280.108 225.939,279.300 226.265 M324.100 226.265 C 323.399 226.548,323.405 234.780,324.106 235.740 C 324.929 236.864,350.597 236.568,351.433 235.424 C 352.164 234.423,352.234 227.194,351.520 226.480 C 351.039 225.999,325.260 225.797,324.100 226.265 M78.315 230.298 C 78.495 236.095,79.755 235.600,64.834 235.600 L 52.097 235.600 51.596 234.391 C 51.081 233.146,51.199 227.772,51.763 226.860 C 51.979 226.511,55.427 226.416,65.127 226.495 L 78.200 226.600 78.315 230.298 M153.586 227.174 C 153.814 227.599,154.000 229.340,154.000 231.042 C 154.000 235.921,155.003 235.600,139.752 235.600 C 124.773 235.600,126.000 236.011,126.000 231.000 C 126.000 225.985,124.736 226.400,140.000 226.400 C 152.613 226.400,153.189 226.433,153.586 227.174 M211.601 228.600 C 212.679 231.783,212.976 235.447,212.182 235.752 C 210.875 236.253,183.667 236.032,183.349 235.518 C 182.997 234.948,183.047 227.371,183.407 226.789 C 183.565 226.532,188.520 226.427,197.289 226.495 L 210.924 226.600 211.601 228.600 M265.813 226.821 C 266.213 227.468,266.321 233.686,265.949 234.700 L 265.620 235.600 252.833 235.600 C 237.673 235.600,238.695 235.968,239.051 230.636 C 239.170 228.856,239.336 227.175,239.421 226.900 C 239.623 226.243,265.408 226.166,265.813 226.821 M310.871 228.200 C 310.800 229.080,310.423 230.430,310.032 231.200 C 309.642 231.970,309.200 233.258,309.050 234.061 C 308.901 234.865,308.558 235.606,308.289 235.708 C 307.232 236.107,282.933 235.486,282.352 235.045 C 281.558 234.440,279.941 230.189,279.708 228.095 L 279.519 226.391 295.259 226.495 L 311.000 226.600 310.871 228.200 M350.800 226.791 C 351.237 227.068,351.439 228.105,351.542 230.608 C 351.763 235.967,352.803 235.600,337.385 235.600 L 324.493 235.600 324.252 234.700 C 323.937 233.524,323.930 227.847,324.243 227.033 C 324.526 226.296,349.655 226.068,350.800 226.791 M345.907 243.893 L 324.014 244.007 323.790 244.903 C 323.667 245.397,323.619 247.600,323.683 249.800 L 323.800 253.800 346.400 254.000 C 372.649 254.232,370.153 254.703,370.314 249.486 C 370.438 245.456,369.939 243.807,368.590 243.790 C 368.155 243.785,357.948 243.831,345.907 243.893 M32.573 244.526 C 32.462 244.815,32.423 247.020,32.486 249.426 L 32.600 253.800 65.112 253.902 C 95.796 253.999,97.640 253.965,97.912 253.302 C 98.286 252.391,98.286 245.611,97.913 244.700 C 97.529 243.767,32.931 243.594,32.573 244.526 M106.791 245.025 C 106.273 246.387,106.289 252.246,106.814 253.226 C 107.220 253.985,108.207 254.000,157.525 254.000 C 213.346 254.000,209.073 254.220,210.030 251.299 C 210.300 250.474,210.775 249.411,211.084 248.935 C 211.428 248.406,211.599 247.316,211.523 246.135 L 211.400 244.200 159.291 244.099 L 107.181 243.997 106.791 245.025 M220.414 244.774 C 219.665 246.172,219.884 253.470,220.683 253.777 C 221.856 254.227,265.732 254.028,266.190 253.571 C 266.653 253.108,266.755 245.777,266.313 244.700 C 265.842 243.553,221.029 243.625,220.414 244.774 M284.951 244.583 C 284.828 244.904,285.092 245.939,285.538 246.883 C 285.985 247.827,286.452 249.230,286.576 250.000 C 286.701 250.770,287.154 251.976,287.584 252.681 L 288.365 253.961 294.882 254.081 L 301.400 254.200 302.461 253.062 C 303.045 252.436,303.700 251.266,303.917 250.462 C 304.135 249.658,304.636 248.159,305.031 247.131 C 306.242 243.980,306.307 244.000,294.938 244.000 C 286.753 244.000,285.139 244.094,284.951 244.583 M97.348 245.300 C 97.701 246.618,97.641 252.516,97.269 253.102 C 97.016 253.500,90.290 253.583,64.975 253.502 L 33.000 253.400 32.885 249.233 C 32.801 246.168,32.907 244.979,33.285 244.739 C 33.568 244.559,48.044 244.409,65.453 244.406 L 97.107 244.400 97.348 245.300 M210.957 245.033 C 211.415 246.226,211.194 247.801,210.400 249.000 C 209.963 249.660,209.604 250.508,209.603 250.884 C 209.601 251.260,209.106 252.026,208.502 252.585 L 207.405 253.603 157.402 253.502 L 107.400 253.400 107.282 249.800 C 107.218 247.820,107.266 245.795,107.390 245.300 L 107.615 244.400 159.165 244.400 C 205.802 244.400,210.738 244.460,210.957 245.033 M265.574 244.775 C 266.106 245.112,266.261 247.633,266.048 252.500 L 266.000 253.600 243.452 253.600 L 220.905 253.600 220.657 252.100 C 220.276 249.795,220.353 247.053,220.839 245.660 L 221.278 244.400 243.139 244.406 C 255.524 244.410,265.249 244.570,265.574 244.775 M304.364 245.300 C 304.577 245.867,304.511 246.719,304.185 247.600 C 303.901 248.370,303.555 249.513,303.416 250.140 C 303.278 250.767,302.779 251.802,302.307 252.440 L 301.450 253.600 295.133 253.600 L 288.816 253.600 287.923 251.900 C 286.917 249.983,285.927 245.856,286.264 244.979 C 286.698 243.847,303.933 244.153,304.364 245.300 M369.513 249.100 L 369.626 253.600 347.056 253.600 C 326.844 253.600,324.460 253.534,324.243 252.967 C 323.930 252.151,323.937 246.475,324.253 245.297 L 324.495 244.393 346.948 244.497 L 369.400 244.600 369.513 249.100 M33.477 262.280 C 32.345 262.574,32.096 263.889,32.357 268.200 L 32.600 272.200 64.849 272.302 C 94.468 272.396,97.143 272.351,97.649 271.742 C 98.542 270.667,98.646 264.347,97.792 263.044 L 97.108 262.000 65.654 262.046 C 48.354 262.072,33.875 262.177,33.477 262.280 M106.781 262.622 C 106.148 263.385,106.224 271.106,106.872 271.887 C 108.069 273.329,183.967 272.442,186.880 270.952 C 187.474 270.649,188.284 270.398,188.680 270.396 C 189.076 270.394,190.300 269.950,191.400 269.409 C 192.500 268.868,193.539 268.419,193.709 268.413 C 194.092 268.397,197.201 266.391,197.962 265.667 C 198.271 265.373,198.946 264.973,199.462 264.776 C 200.161 264.511,200.400 264.111,200.400 263.210 L 200.400 262.000 153.849 262.000 C 112.216 262.000,107.243 262.066,106.781 262.622 M220.623 262.889 C 219.841 264.005,219.728 271.168,220.480 271.920 C 221.153 272.593,265.819 272.616,266.235 271.943 C 266.916 270.841,266.923 264.048,266.245 263.012 L 265.582 262.000 243.413 262.000 L 221.245 262.000 220.623 262.889 M292.080 262.480 C 291.362 263.198,291.492 264.372,292.600 267.200 C 293.150 268.603,293.600 270.071,293.600 270.462 C 293.600 271.194,294.711 272.000,295.720 272.000 C 296.954 272.000,299.321 263.710,298.403 262.603 C 297.779 261.852,292.805 261.755,292.080 262.480 M324.014 262.774 C 323.424 263.876,323.478 271.318,324.080 271.920 C 324.989 272.829,368.907 272.587,369.738 271.669 C 370.657 270.653,370.686 264.187,369.777 262.889 L 369.155 262.000 346.791 262.000 C 325.091 262.000,324.416 262.023,324.014 262.774 M97.410 263.700 C 97.535 264.195,97.583 266.130,97.518 268.000 L 97.400 271.400 65.100 271.502 L 32.800 271.605 32.800 267.432 C 32.800 263.794,32.890 263.235,33.500 263.076 C 33.885 262.975,48.372 262.872,65.692 262.846 L 97.185 262.800 97.410 263.700 M199.225 263.430 C 199.776 264.094,199.222 264.780,198.123 264.794 C 197.860 264.797,197.409 265.115,197.120 265.500 C 196.535 266.278,192.769 268.400,191.973 268.400 C 191.692 268.400,191.179 268.651,190.831 268.959 C 190.209 269.509,186.735 270.549,183.188 271.248 C 182.183 271.445,164.821 271.559,144.188 271.502 L 107.000 271.400 106.884 267.660 C 106.810 265.246,106.934 263.721,107.233 263.360 C 107.981 262.459,198.476 262.528,199.225 263.430 M265.700 263.357 C 266.208 263.865,266.303 265.858,266.047 270.700 L 266.000 271.600 243.452 271.600 L 220.905 271.600 220.657 270.100 C 220.249 267.634,220.367 264.443,220.896 263.595 C 221.547 262.552,264.667 262.324,265.700 263.357 M298.197 263.589 C 298.335 264.025,298.106 265.149,297.684 266.103 C 297.265 267.051,296.797 268.490,296.645 269.300 C 296.178 271.790,294.300 271.546,293.819 268.932 C 293.664 268.089,293.190 266.610,292.766 265.644 C 291.723 263.268,292.160 262.800,295.422 262.800 C 297.583 262.800,297.982 262.913,298.197 263.589 M369.410 263.700 C 369.535 264.195,369.583 266.130,369.518 268.000 L 369.400 271.400 346.800 271.400 L 324.200 271.400 324.082 268.000 C 324.017 266.130,324.065 264.195,324.190 263.700 L 324.415 262.800 346.800 262.800 L 369.185 262.800 369.410 263.700 " stroke="none" fill="#848484" fill-rule="evenodd"></path></g></svg>